<?xml version="1.0" standalone="no"?>
<!DOCTYPE svg PUBLIC "-//W3C//DTD SVG 20010904//EN"
 "http://www.w3.org/TR/2001/REC-SVG-20010904/DTD/svg10.dtd">
<svg version="1.0" xmlns="http://www.w3.org/2000/svg"
 width="900.000000pt" height="339.000000pt" viewBox="0 0 900.000000 339.000000"
 preserveAspectRatio="xMidYMid meet">
<metadata>
Created by potrace 1.10, written by Peter Selinger 2001-2011
</metadata>
<g transform="translate(0.000000,339.000000) scale(0.100000,-0.100000)"
fill="#000000" stroke="none">
<path d="M1945 3101 c-22 -5 -65 -14 -95 -20 -30 -6 -59 -16 -64 -21 -6 -6
-17 -10 -26 -10 -26 0 -189 -87 -239 -127 -103 -82 -179 -179 -218 -278 -42
-105 -46 -123 -50 -245 -4 -106 -2 -134 16 -187 54 -167 188 -287 386 -346 68
-21 188 -47 213 -47 37 0 147 -32 173 -51 15 -10 32 -33 39 -50 12 -27 11 -36
-5 -65 -10 -19 -34 -44 -54 -56 -32 -20 -49 -23 -146 -23 -118 0 -154 9 -268
66 -69 35 -123 69 -157 98 -48 43 -63 26 -117 -129 -8 -25 -23 -63 -32 -85
-10 -22 -25 -58 -33 -80 -9 -22 -31 -75 -48 -118 -17 -43 -30 -88 -28 -99 2
-15 20 -28 63 -46 33 -13 69 -28 80 -33 32 -14 136 -46 185 -57 197 -46 203
-47 415 -47 133 0 225 4 250 12 22 6 65 19 95 28 253 73 447 252 511 472 28
96 28 293 0 379 -40 126 -115 217 -238 292 -58 35 -226 92 -348 117 -131 28
-179 44 -208 71 -35 32 -35 73 -1 113 35 42 89 55 191 47 99 -8 158 -28 276
-90 85 -45 107 -49 107 -22 0 8 7 27 15 42 8 16 15 36 15 45 0 8 4 19 8 25 5
5 33 74 62 154 29 80 57 149 62 155 4 5 8 21 8 36 0 24 -9 32 -77 65 -121 57
-173 76 -278 101 -70 16 -381 26 -440 14z"/>
<path d="M345 3068 c-3 -7 -4 -458 -3 -1003 l3 -990 355 0 355 0 0 1000 0
1000 -353 3 c-277 2 -354 0 -357 -10z"/>
<path d="M2940 3075 c0 -3 0 -454 0 -1002 l0 -998 355 -3 c235 -1 355 1 355 8
0 5 0 453 0 995 0 542 0 990 0 995 0 10 -710 15 -710 5z"/>
<path d="M4086 3071 c-3 -5 -10 -41 -16 -81 -6 -40 -12 -76 -15 -80 -2 -4 -9
-43 -14 -86 -11 -91 -36 -248 -45 -284 -4 -14 -11 -56 -16 -95 -9 -65 -16
-113 -54 -350 -8 -49 -17 -101 -20 -115 -4 -14 -11 -56 -16 -95 -5 -38 -16
-110 -24 -160 -22 -133 -45 -278 -61 -380 -8 -49 -21 -128 -29 -175 -8 -47
-12 -88 -9 -92 2 -5 157 -8 344 -8 263 0 340 3 343 12 8 27 27 198 36 313 9
122 19 219 45 446 8 69 15 166 15 215 0 49 5 96 10 104 19 28 46 -21 53 -95 4
-37 11 -81 16 -99 5 -17 19 -62 30 -101 31 -106 51 -173 75 -250 13 -38 31
-97 40 -130 10 -33 24 -78 31 -100 7 -22 23 -74 35 -115 41 -139 53 -175 63
-188 7 -9 58 -12 215 -10 l206 3 20 60 c11 33 25 74 33 92 7 17 13 36 13 43 0
6 13 51 29 98 16 48 50 155 77 237 26 83 66 209 90 280 23 72 47 157 54 190
28 126 45 123 54 -12 4 -54 11 -132 16 -173 5 -41 14 -133 20 -205 6 -71 18
-204 26 -295 9 -91 19 -199 22 -240 l7 -75 733 -3 732 -2 9 22 c5 13 19 66 31
118 11 52 27 118 34 145 8 28 22 86 31 130 10 44 21 90 26 103 5 13 9 36 9 52
0 16 9 52 20 80 11 28 20 66 20 85 0 19 5 37 11 41 6 3 9 17 6 30 -2 13 2 29
9 35 8 6 11 22 8 38 -4 18 0 32 10 40 9 8 16 20 16 27 0 19 24 18 40 -1 18
-22 126 -21 138 2 11 20 42 11 42 -12 0 -13 6 -15 28 -11 15 3 34 2 42 -4 12
-8 9 -10 -11 -10 -44 0 -45 -34 -6 -143 5 -16 11 -43 12 -60 2 -18 8 -50 14
-72 7 -22 13 -47 15 -55 1 -8 6 -28 10 -45 4 -16 16 -68 27 -115 11 -47 24
-101 29 -120 5 -19 21 -84 35 -143 14 -59 30 -119 35 -132 l10 -25 376 0 376
0 -7 33 c-4 17 -13 45 -21 61 -8 16 -14 33 -14 39 0 5 -6 23 -14 40 -8 18 -26
66 -39 107 -39 117 -77 223 -87 245 -5 11 -19 49 -31 85 -37 108 -76 220 -114
325 -20 55 -41 116 -47 135 -6 19 -13 40 -16 45 -6 9 -26 65 -87 240 -13 39
-40 115 -60 170 -20 55 -41 116 -47 135 -5 19 -14 39 -19 44 -5 6 -9 19 -9 29
0 10 -6 33 -14 50 -19 43 -37 91 -61 162 l-21 60 -404 0 -405 0 -38 -110 c-21
-60 -41 -119 -44 -130 -3 -11 -11 -34 -19 -52 -8 -17 -14 -37 -14 -45 0 -8 -4
-18 -9 -23 -6 -6 -14 -28 -20 -50 -5 -22 -33 -105 -61 -185 -28 -80 -54 -154
-57 -165 -2 -11 -9 -29 -14 -40 -8 -19 -57 -160 -115 -335 -14 -41 -32 -89
-40 -107 -8 -17 -14 -38 -14 -47 0 -9 -4 -24 -10 -34 -5 -9 -20 -51 -34 -92
-14 -41 -41 -120 -61 -175 -20 -55 -40 -113 -45 -130 -12 -43 -30 -95 -46
-132 -8 -17 -14 -36 -14 -42 0 -21 -34 -81 -44 -78 -11 4 -28 91 -46 232 -6
44 -13 87 -16 95 -3 8 -12 58 -21 110 -8 52 -21 133 -29 180 -7 47 -18 119
-24 160 -6 41 -13 82 -16 90 -7 17 -30 167 -45 284 -5 43 -11 82 -14 86 -3 4
-12 54 -21 111 -9 57 -23 142 -31 189 -8 47 -17 101 -19 120 -3 19 -11 73 -19
120 -9 47 -19 110 -23 140 l-7 55 -355 3 c-195 1 -365 0 -376 -3 -16 -3 -23
-15 -28 -47 -4 -24 -13 -61 -20 -83 -8 -22 -22 -67 -31 -100 -24 -88 -42 -150
-69 -240 -14 -45 -29 -99 -34 -120 -6 -22 -17 -67 -27 -100 -40 -140 -65 -253
-65 -291 0 -49 -21 -74 -45 -54 -8 7 -15 25 -15 41 0 15 -5 40 -11 56 -11 28
-27 86 -53 193 -7 30 -28 109 -46 175 -17 66 -38 145 -45 175 -7 30 -21 82
-30 115 -9 33 -20 79 -25 103 -5 24 -13 48 -16 54 -4 6 -12 36 -18 67 l-11 56
-372 3 c-211 1 -374 -2 -377 -7z m3536 -689 c6 -15 14 -49 19 -75 5 -31 19
-60 38 -83 32 -35 49 -80 36 -92 -3 -4 -48 -7 -99 -8 -51 -1 -98 -4 -104 -8
-17 -10 -33 30 -26 61 4 15 18 37 31 49 12 11 26 36 29 55 7 36 31 117 40 131
8 13 24 -1 36 -30z m210 -279 c9 -10 27 -27 40 -38 69 -58 97 -189 31 -147 -8
5 -9 13 -3 22 15 23 12 37 -12 60 -13 12 -29 18 -41 14 -12 -4 -18 -1 -16 8 3
26 -1 38 -21 58 -12 12 -18 25 -15 30 9 14 18 12 37 -7z m-412 -8 c0 -8 -9
-15 -20 -15 -11 0 -20 -4 -20 -10 0 -5 7 -10 16 -10 8 0 12 -5 8 -11 -3 -6
-17 -8 -30 -5 -14 4 -24 2 -24 -4 0 -15 -38 -50 -55 -50 -34 0 -9 43 55 92 39
31 70 36 70 13z m370 -41 c0 -8 -4 -14 -10 -14 -5 0 -10 9 -10 21 0 11 5 17
10 14 6 -3 10 -13 10 -21z m-330 -65 c0 -5 -7 -9 -15 -9 -15 0 -20 12 -9 23 8
8 24 -1 24 -14z m-66 -27 c-6 -20 -24 -32 -24 -14 1 23 14 52 21 45 5 -5 6
-18 3 -31z m-119 -59 l-14 -26 -7 27 c-4 16 -1 39 6 54 l13 27 8 -28 c5 -18 3
-37 -6 -54z m65 50 c0 -5 -4 -15 -10 -23 -11 -18 -25 -7 -17 15 6 15 27 21 27
8z m475 -64 c8 -23 1 -34 -14 -24 -13 8 -15 45 -2 45 5 0 13 -9 16 -21z m-390
1 c-3 -5 -13 -10 -21 -10 -8 0 -14 5 -14 10 0 6 9 10 21 10 11 0 17 -4 14 -10z
m-140 -70 c-13 -20 -25 -9 -25 22 0 32 0 32 16 10 8 -12 12 -27 9 -32z m588
35 c4 -8 2 -17 -3 -20 -6 -4 -10 -4 -10 -1 0 2 -3 11 -6 20 -3 9 -2 16 4 16 5
0 12 -7 15 -15z m65 -22 c-4 -22 -22 -20 -26 1 -2 10 3 16 13 16 10 0 15 -7
13 -17z m-101 -70 c-3 -3 -11 -2 -17 2 -9 6 -9 10 1 16 14 8 27 -7 16 -18z
m-518 -12 c7 -5 11 -14 7 -19 -9 -15 -36 -4 -36 14 0 16 9 18 29 5z"/>
<path d="M2996 888 c-14 -8 -16 -41 -16 -306 0 -163 4 -303 9 -310 4 -8 19
-12 32 -10 l24 3 3 311 c2 297 1 312 -16 316 -11 3 -27 1 -36 -4z"/>
<path d="M1266 875 c-3 -9 -6 -144 -6 -299 0 -305 3 -321 51 -314 l24 3 0 310
0 310 -31 3 c-22 2 -33 -2 -38 -13z"/>
<path d="M2047 884 c-4 -4 -7 -49 -7 -100 0 -98 -9 -117 -39 -90 -41 37 -97 8
-131 -66 -28 -62 -28 -236 0 -300 36 -82 81 -95 153 -46 15 11 20 10 32 -5 8
-11 23 -17 37 -15 l23 3 0 310 0 310 -30 3 c-17 2 -34 0 -38 -4z m-7 -397 c0
-75 -12 -112 -42 -131 -30 -18 -52 5 -64 67 -15 72 -2 155 29 180 21 19 22 18
49 -12 25 -28 28 -39 28 -104z"/>
<path d="M402 849 l-22 -8 2 -288 3 -288 99 -3 c111 -3 129 4 124 52 -3 31 -3
31 -70 34 -54 2 -70 7 -78 22 -11 20 -7 136 4 148 4 4 33 9 64 12 54 5 57 7
60 33 5 42 -13 57 -68 57 -61 0 -74 15 -68 80 3 28 8 54 12 57 4 4 30 6 57 5
61 -3 89 11 89 43 0 41 -21 52 -107 52 -43 1 -88 -3 -101 -8z"/>
<path d="M2759 842 c-62 -41 -91 -100 -109 -216 -13 -88 0 -215 27 -271 39
-77 109 -115 179 -96 53 15 74 38 74 82 0 48 -13 56 -46 30 -79 -62 -154 27
-154 181 0 161 73 251 153 188 38 -30 47 -25 47 24 0 37 -5 48 -31 70 -37 31
-100 35 -140 8z"/>
<path d="M5319 853 c-15 -4 -49 -92 -49 -128 0 -10 -6 -41 -14 -69 -28 -100
-75 -312 -78 -351 -3 -38 -2 -40 27 -40 27 0 31 5 50 60 l20 60 66 3 c76 3 80
0 101 -73 13 -48 15 -50 51 -53 25 -2 37 1 37 10 0 15 -23 126 -38 183 -10 38
-22 88 -58 245 -36 158 -47 172 -115 153z m51 -224 c11 -41 20 -89 20 -107 0
-33 0 -33 -42 -30 -39 3 -43 6 -46 31 -2 15 3 51 11 80 8 28 18 65 21 81 4 15
9 26 12 24 2 -3 13 -38 24 -79z"/>
<path d="M7836 844 c-14 -13 -16 -53 -16 -284 0 -148 3 -275 6 -284 7 -17 59
-22 69 -7 3 6 6 135 6 288 0 253 -1 278 -17 290 -23 17 -29 16 -48 -3z"/>
<path d="M7995 837 c-13 -20 -15 -64 -13 -292 3 -242 5 -269 21 -279 12 -8 22
-8 35 0 15 10 17 33 20 198 1 110 6 186 12 186 5 0 12 -12 16 -27 3 -16 12
-44 19 -63 22 -54 66 -181 77 -222 14 -50 42 -78 79 -78 22 0 32 6 39 26 11
27 14 504 4 541 -7 24 -27 35 -49 27 -13 -5 -15 -35 -15 -183 0 -97 -5 -183
-10 -191 -5 -8 -10 -13 -10 -9 0 3 -21 63 -46 135 -25 71 -48 138 -51 149 -24
91 -93 135 -128 82z"/>
<path d="M8430 854 c-38 -15 -40 -31 -40 -300 0 -144 3 -269 6 -278 7 -19 59
-22 71 -4 4 7 10 54 13 103 l5 90 40 5 c92 13 135 75 135 195 0 90 -23 146
-72 171 -33 17 -132 28 -158 18z m122 -114 c28 -28 30 -35 26 -85 -5 -64 -29
-97 -67 -93 -26 3 -26 5 -29 97 -2 69 1 97 10 103 21 12 28 10 60 -22z"/>
<path d="M4868 799 c-12 -7 -18 -22 -18 -47 0 -25 -7 -43 -20 -55 -25 -21 -26
-59 -1 -81 17 -15 20 -35 23 -156 3 -121 6 -142 24 -166 26 -35 63 -48 98 -34
24 9 27 15 24 47 -3 33 -7 38 -29 41 -33 4 -39 28 -39 152 0 91 6 104 45 112
16 3 20 11 20 43 0 32 -4 40 -20 43 -33 7 -45 23 -45 62 0 47 -24 62 -62 39z"/>
<path d="M718 681 c-47 -41 -68 -108 -67 -211 1 -141 45 -215 129 -215 51 0
90 35 90 81 0 40 -15 51 -39 30 -22 -20 -55 -21 -75 -1 -20 20 -31 115 -20
178 7 40 15 55 36 66 24 14 28 14 47 -3 48 -44 73 32 26 79 -34 35 -85 34
-127 -4z"/>
<path d="M987 691 c-39 -25 -56 -52 -73 -116 -27 -106 -10 -223 41 -282 26
-31 36 -35 82 -36 63 -2 98 20 130 84 30 60 32 223 4 285 -35 77 -120 108
-184 65z m96 -89 c25 -28 37 -108 25 -172 -12 -68 -22 -80 -63 -80 -46 0 -69
53 -63 147 6 105 55 156 101 105z"/>
<path d="M1468 687 c-49 -40 -68 -100 -68 -215 0 -81 4 -110 19 -140 33 -64
55 -77 127 -76 74 2 94 14 94 59 0 42 -4 44 -50 33 -58 -15 -87 -4 -105 39
-22 53 -9 63 81 63 70 0 75 1 86 26 9 19 9 42 0 97 -10 62 -17 77 -47 105 -43
40 -95 43 -137 9z m94 -74 c21 -18 25 -78 5 -86 -6 -2 -23 -3 -37 -2 -14 1
-31 3 -39 4 -19 2 -7 72 16 88 22 17 33 16 55 -4z"/>
<path d="M2248 681 c-46 -40 -68 -108 -68 -208 0 -166 67 -242 190 -215 39 9
68 48 57 76 -6 15 -15 17 -57 11 -62 -8 -95 9 -105 56 -9 41 3 49 87 49 60 0
69 3 83 24 28 42 -3 167 -51 211 -38 36 -93 34 -136 -4z m92 -61 c21 -11 37
-67 22 -82 -15 -15 -68 -18 -87 -4 -15 11 -16 17 -6 49 15 45 36 56 71 37z"/>
<path d="M3203 695 c-92 -64 -109 -315 -28 -403 28 -31 38 -36 81 -36 27 0 61
3 75 6 29 9 55 49 45 73 -5 15 -15 16 -61 10 -64 -8 -87 2 -105 44 -21 53 -10
61 80 61 76 0 81 1 90 24 13 35 0 136 -22 174 -27 43 -56 62 -98 62 -20 0 -45
-7 -57 -15z m100 -103 c29 -49 18 -64 -45 -60 -61 3 -69 16 -38 66 26 42 56
40 83 -6z"/>
<path d="M3471 696 c-8 -9 -11 -78 -9 -222 l3 -209 30 0 30 0 5 140 c6 155 14
180 65 193 28 8 30 11 30 58 0 44 -2 49 -24 52 -17 3 -30 -4 -42 -19 -16 -22
-19 -22 -36 -8 -30 27 -40 29 -52 15z"/>
<path d="M3680 684 c-11 -27 -14 -382 -4 -408 4 -10 18 -16 35 -16 l29 0 0
135 c0 146 9 183 52 206 18 10 24 8 40 -11 15 -19 18 -42 18 -164 0 -77 4
-147 9 -154 4 -8 19 -12 32 -10 24 3 24 5 29 145 4 124 8 145 26 170 12 15 28
29 37 31 31 6 42 -39 47 -193 l5 -150 30 0 30 0 3 170 c1 94 0 180 -3 192 -3
12 -17 35 -31 52 -32 39 -71 41 -104 6 -13 -14 -30 -25 -38 -25 -8 0 -25 11
-38 25 -30 33 -73 33 -104 0 l-23 -25 -23 25 c-29 32 -42 31 -54 -1z"/>
<path d="M4240 688 c-97 -66 -108 -334 -17 -409 53 -43 144 -29 184 27 57 82
57 279 0 354 -41 54 -111 66 -167 28z m109 -94 c17 -22 21 -41 21 -106 0 -96
-19 -138 -61 -138 -40 0 -57 23 -64 85 -18 143 43 236 104 159z"/>
<path d="M4537 697 c-16 -11 -17 -33 -15 -222 l3 -210 26 -3 c14 -2 31 3 37
10 6 8 12 73 14 155 3 122 6 144 22 162 23 25 39 26 60 5 13 -13 16 -42 16
-163 0 -160 5 -176 52 -169 23 3 23 5 26 163 3 168 -4 214 -39 259 -27 34 -69
34 -113 1 l-33 -25 -11 25 c-13 28 -21 30 -45 12z"/>
<path d="M5588 699 c-16 -9 -18 -29 -18 -177 0 -154 2 -171 23 -212 32 -64 76
-73 139 -28 14 10 21 9 37 -6 11 -10 28 -16 38 -14 17 3 18 19 21 210 2 178 0
208 -14 222 -19 20 -29 20 -48 0 -13 -12 -16 -41 -16 -153 0 -126 -2 -141 -21
-165 -29 -37 -59 -31 -75 14 -7 21 -13 88 -13 166 -1 147 -9 169 -53 143z"/>
<path d="M5901 696 c-13 -15 -10 -46 14 -151 27 -121 44 -201 50 -232 8 -42
26 -55 71 -51 37 3 38 4 54 68 10 36 25 101 35 145 9 44 23 105 31 136 15 59
12 84 -12 93 -25 10 -44 -5 -53 -43 -21 -79 -41 -180 -41 -202 0 -13 -4 -31
-10 -39 -12 -19 -24 14 -40 102 -30 166 -61 220 -99 174z"/>
<path d="M6244 675 c-80 -86 -85 -301 -8 -385 30 -33 36 -35 93 -34 50 1 66 5
87 25 14 13 24 32 22 44 -3 18 -10 20 -71 20 -61 0 -70 3 -88 25 -10 14 -18
36 -17 50 3 24 6 25 88 30 l85 5 3 78 c2 66 -1 84 -18 113 -29 47 -57 64 -104
64 -31 0 -45 -7 -72 -35z m120 -88 c23 -49 14 -59 -50 -55 -58 4 -67 22 -34
68 30 42 59 37 84 -13z"/>
<path d="M6531 696 c-8 -9 -11 -82 -9 -222 l3 -209 30 0 30 0 5 140 c5 151 15
181 60 192 14 3 28 11 32 17 9 13 10 59 2 80 -9 23 -49 19 -68 -6 -14 -21 -17
-21 -28 -7 -19 23 -45 30 -57 15z"/>
<path d="M6772 685 c-18 -15 -37 -46 -47 -75 -15 -45 -15 -55 -1 -102 13 -45
13 -55 0 -79 -17 -33 -18 -73 -3 -101 8 -15 8 -27 -2 -46 -21 -37 -18 -126 4
-150 41 -45 152 -47 200 -4 70 62 56 200 -22 222 -20 5 -47 10 -61 10 -30 0
-73 27 -65 41 4 5 22 9 42 9 76 0 123 57 123 150 0 30 6 52 15 60 15 13 21 65
8 73 -5 3 -42 8 -84 11 -72 7 -77 6 -107 -19z m97 -91 c15 -33 -1 -90 -28 -97
-43 -11 -72 43 -50 95 16 38 61 40 78 2z m5 -327 c27 -20 18 -68 -16 -87 -25
-13 -31 -13 -55 0 -16 9 -29 26 -31 39 -7 48 59 79 102 48z"/>
<path d="M7035 694 c-12 -13 -15 -49 -15 -213 0 -214 3 -226 52 -219 23 3 23
6 28 154 4 131 8 155 24 173 26 29 54 27 66 -5 6 -14 10 -85 10 -158 0 -145 8
-170 51 -164 l24 3 3 172 c2 157 1 177 -18 213 -31 61 -89 80 -125 40 -21 -23
-43 -26 -51 -6 -9 22 -32 27 -49 10z"/>
<path d="M7408 681 c-47 -41 -68 -108 -67 -211 0 -99 20 -157 63 -191 42 -33
141 -32 169 2 10 12 17 32 15 43 -3 19 -10 21 -70 21 -37 0 -72 5 -78 11 -5 5
-11 28 -13 50 l-2 39 78 3 c68 3 79 5 93 27 26 40 -1 151 -49 203 -42 43 -92
44 -139 3z m94 -63 c20 -16 33 -74 18 -83 -21 -13 -68 -14 -85 -1 -15 11 -16
17 -6 49 16 46 42 59 73 35z"/>
</g>
</svg>
