<?xml version="1.0" standalone="no"?>
<!DOCTYPE svg PUBLIC "-//W3C//DTD SVG 20010904//EN"
 "http://www.w3.org/TR/2001/REC-SVG-20010904/DTD/svg10.dtd">
<svg version="1.0" xmlns="http://www.w3.org/2000/svg"
 width="900.000000pt" height="900.000000pt" viewBox="0 0 900.000000 900.000000"
 preserveAspectRatio="xMidYMid meet">
<metadata>
Created by potrace 1.10, written by Peter Selinger 2001-2011
</metadata>
<g transform="translate(0.000000,900.000000) scale(0.100000,-0.100000)"
fill="#000000" stroke="none">
<path d="M4285 8570 c-231 -15 -390 -35 -546 -71 -47 -10 -95 -19 -105 -19
-20 0 -144 -28 -179 -40 -38 -13 -150 -48 -210 -65 -114 -32 -330 -115 -473
-181 -41 -19 -75 -34 -77 -34 -8 0 -289 -156 -355 -197 -109 -67 -225 -146
-228 -155 -2 -4 -8 -8 -13 -8 -13 0 -164 -116 -284 -219 -113 -97 -356 -336
-430 -425 -28 -33 -64 -75 -80 -95 -17 -20 -46 -56 -65 -81 -19 -25 -37 -47
-41 -50 -3 -3 -40 -54 -82 -115 -304 -440 -526 -943 -636 -1435 -56 -254 -69
-342 -92 -645 -12 -161 -5 -559 12 -700 27 -220 47 -347 65 -409 8 -26 14 -63
14 -82 0 -18 4 -35 9 -38 5 -3 12 -23 15 -43 4 -21 14 -60 22 -88 8 -27 22
-75 31 -105 9 -30 19 -64 23 -75 5 -11 18 -51 30 -90 12 -38 26 -74 31 -79 5
-6 9 -16 9 -24 0 -12 13 -44 56 -139 8 -17 14 -33 14 -36 0 -10 130 -273 160
-322 16 -27 33 -57 36 -65 43 -96 268 -424 394 -574 280 -332 584 -606 905
-814 55 -35 112 -73 127 -83 15 -11 30 -19 32 -19 3 0 36 -19 73 -42 61 -37
322 -168 419 -210 143 -61 388 -147 524 -183 201 -53 276 -69 405 -90 55 -9
125 -20 155 -25 31 -6 136 -14 235 -20 99 -5 205 -12 236 -15 64 -6 522 20
619 36 282 45 316 53 550 114 135 36 412 133 515 180 17 8 53 24 80 35 61 27
286 139 300 150 6 4 37 22 70 40 33 18 79 46 103 61 24 16 45 29 47 29 7 0
199 136 293 207 193 146 434 372 581 543 40 47 83 96 95 110 30 34 194 254
236 315 118 177 284 481 355 651 20 49 41 98 46 109 17 38 61 160 94 260 147
440 218 967 194 1442 -4 98 -11 198 -14 223 -3 25 -7 70 -10 100 -19 200 -94
536 -176 785 -27 83 -53 159 -59 170 -5 11 -25 61 -45 110 -224 560 -592 1079
-1064 1501 -30 27 -63 57 -72 66 -55 53 -464 348 -482 348 -3 0 -32 17 -64 38
-68 46 -147 90 -223 128 -137 67 -218 104 -227 104 -5 0 -14 5 -20 11 -7 7
-40 22 -75 35 -35 12 -88 32 -118 44 -121 47 -136 52 -170 60 -19 4 -48 13
-65 18 -16 6 -57 18 -90 28 -33 9 -72 23 -87 30 -14 8 -39 14 -56 14 -16 0
-49 7 -72 15 -23 8 -59 15 -79 15 -20 0 -52 5 -71 11 -50 15 -138 29 -260 40
-58 5 -125 14 -150 19 -63 13 -420 19 -565 10z m-3045 -2653 c83 -29 146 -87
183 -169 15 -32 17 -96 17 -648 0 -674 2 -708 62 -865 74 -193 234 -357 428
-439 109 -45 142 -51 300 -51 156 0 216 10 305 50 17 8 37 16 45 19 49 19 179
116 231 174 57 64 135 188 145 230 4 15 10 32 14 37 18 25 40 152 40 232 1 48
5 108 11 133 5 25 14 83 18 130 8 78 43 213 75 285 41 95 92 194 112 222 13
17 24 34 24 38 0 16 125 167 191 232 127 124 242 200 461 305 57 27 226 74
303 85 148 20 469 6 566 -26 135 -43 164 -54 198 -75 36 -23 81 -74 108 -122
23 -43 34 -138 22 -195 -14 -66 -27 -92 -74 -147 -80 -92 -210 -124 -335 -82
-36 12 -110 28 -165 36 -87 12 -113 12 -205 -1 -113 -17 -131 -22 -230 -68
-93 -43 -146 -81 -222 -159 -207 -209 -274 -485 -191 -785 45 -163 201 -362
343 -439 19 -10 42 -24 50 -30 8 -7 60 -27 115 -45 94 -31 108 -33 240 -33
140 0 203 11 295 51 173 73 309 194 394 346 66 120 86 199 96 377 9 158 47
397 68 424 5 6 12 27 16 46 8 47 108 246 171 340 55 83 219 253 310 322 81 61
115 80 318 180 17 8 49 19 155 52 174 55 521 59 702 9 69 -19 165 -51 188 -61
166 -81 233 -118 312 -178 214 -159 404 -413 485 -649 9 -27 21 -59 26 -70 4
-11 13 -47 20 -80 6 -33 15 -78 21 -100 5 -22 13 -272 17 -555 4 -283 11 -524
15 -535 35 -88 50 -109 120 -159 36 -27 38 -31 33 -70 -14 -98 -107 -214 -216
-269 -61 -30 -70 -32 -175 -32 -86 0 -118 4 -141 18 -16 9 -35 17 -41 17 -22
0 -143 122 -164 165 -49 101 -50 113 -50 730 0 365 -4 595 -11 620 -5 22 -15
57 -20 79 -32 129 -153 298 -282 395 -107 81 -216 125 -367 146 -243 35 -482
-46 -662 -226 -98 -98 -142 -171 -188 -310 -26 -77 -32 -114 -40 -257 -14
-240 -35 -340 -109 -521 -121 -297 -379 -573 -668 -716 -50 -25 -95 -45 -98
-45 -4 0 -21 -6 -38 -14 -130 -58 -286 -84 -492 -84 -201 0 -312 18 -476 78
-201 75 -341 164 -504 322 -60 60 -113 108 -116 108 -3 0 -30 -28 -60 -62
-121 -138 -369 -310 -509 -353 -14 -4 -29 -11 -35 -14 -10 -7 -58 -22 -175
-55 -103 -29 -296 -41 -448 -27 -76 6 -155 18 -177 26 -22 8 -49 14 -60 15
-45 1 -255 91 -359 153 -117 71 -286 220 -381 337 -27 33 -108 157 -128 195
-50 97 -87 179 -87 193 0 5 -7 23 -15 38 -8 16 -15 39 -15 52 0 13 -5 32 -11
43 -30 57 -38 199 -43 841 -6 646 -6 647 16 705 31 84 113 164 193 187 33 10
65 20 70 22 16 6 97 -5 135 -19z m5539 -1027 c65 -33 143 -111 177 -177 27
-54 29 -66 29 -168 0 -102 -2 -114 -30 -168 -33 -66 -112 -144 -177 -175 -24
-12 -71 -26 -105 -33 -54 -11 -72 -11 -140 6 -43 10 -89 25 -103 33 -128 80
-200 203 -200 341 0 156 105 300 259 358 59 22 235 12 290 -17z"/>
</g>
</svg>
