<?xml version="1.0" standalone="no"?>
<!DOCTYPE svg PUBLIC "-//W3C//DTD SVG 20010904//EN"
 "http://www.w3.org/TR/2001/REC-SVG-20010904/DTD/svg10.dtd">
<svg version="1.0" xmlns="http://www.w3.org/2000/svg"
 width="300.000000pt" height="372.000000pt" viewBox="0 0 300.000000 372.000000"
 preserveAspectRatio="xMidYMid meet">
<metadata>
Created by potrace 1.10, written by Peter Selinger 2001-2011
</metadata>
<g transform="translate(0.000000,372.000000) scale(0.050000,-0.050000)"
fill="#000000" stroke="none">
<path d="M5314 7189 c-40 -54 3 -100 50 -53 16 16 9 18 -23 10 -44 -12 -45
-11 -10 29 19 23 49 37 67 31 28 -8 28 -7 2 12 -41 29 -45 28 -86 -29z"/>
<path d="M2690 7202 c-347 -21 -456 -78 -415 -214 17 -53 16 -68 -2 -59 -12 6
-39 17 -58 23 -37 14 -48 48 -15 48 11 0 20 14 20 30 0 17 -9 30 -20 30 -11 0
-18 -11 -15 -25 3 -13 -15 -27 -40 -31 -25 -4 -45 -16 -45 -27 0 -10 -9 -14
-20 -7 -11 7 -26 -2 -32 -19 -7 -17 -34 -31 -60 -31 -29 0 -48 -12 -48 -30 0
-16 -16 -30 -36 -30 -48 0 -127 -58 -84 -61 17 -1 -1 -14 -40 -29 -38 -15 -59
-28 -45 -28 14 -1 25 -16 25 -34 0 -25 -13 -28 -62 -18 -99 22 -327 -232 -634
-709 -117 -181 -731 -1395 -752 -1486 -16 -67 26 -169 94 -232 28 -26 71 -98
96 -160 36 -92 82 -176 131 -240 3 -5 44 13 91 38 79 42 256 67 256 36 0 -21
-58 -37 -91 -24 -21 8 -35 -2 -43 -32 -10 -37 -22 -43 -69 -33 -35 7 -57 3
-57 -11 0 -15 -10 -14 -30 3 -21 17 -30 18 -30 2 0 -30 115 -188 151 -208 16
-9 29 -33 29 -54 0 -21 9 -43 20 -50 11 -7 20 -4 20 7 0 26 54 44 90 30 43
-16 37 -36 -20 -67 -54 -29 -57 -74 -5 -65 17 3 36 -9 43 -26 7 -18 22 -26 37
-17 14 8 18 7 10 -2 -23 -25 24 -69 59 -56 18 7 42 -2 56 -21 22 -30 29 -26
71 34 47 68 135 83 110 19 -6 -16 -11 -35 -11 -43 0 -7 -26 -25 -58 -39 -32
-14 -82 -48 -112 -76 -63 -59 -86 -49 -54 22 17 38 17 50 0 50 -13 0 -39 15
-59 33 -33 30 -37 30 -49 0 -11 -31 42 -128 210 -381 29 -43 69 -106 89 -140
20 -34 59 -86 87 -115 27 -29 50 -61 50 -70 1 -42 99 -127 145 -127 26 0 8
137 -27 206 -66 130 -66 135 -1 157 46 16 55 27 39 47 -15 18 -16 30 -1 39 12
8 21 29 21 48 0 40 99 143 138 143 50 0 86 -56 62 -100 -24 -45 -52 -52 -67
-15 -7 17 -10 15 -11 -5 -1 -17 -24 -55 -52 -84 -51 -55 -66 -116 -30 -116 12
0 11 -15 -4 -39 -20 -32 -18 -46 13 -80 28 -31 42 -36 53 -17 9 14 23 18 32 9
9 -9 0 -25 -20 -36 -33 -18 -32 -22 10 -60 l46 -40 -57 9 c-51 8 -55 4 -44
-38 8 -34 3 -48 -17 -48 -44 0 -56 -32 -23 -59 23 -19 36 -16 64 17 20 23 43
42 51 42 29 0 17 -61 -14 -73 -16 -6 -25 -19 -19 -29 6 -10 2 -18 -9 -18 -11
0 -16 -13 -9 -30 16 -42 49 -37 61 9 5 21 41 53 78 71 37 17 68 45 68 61 0 35
93 40 105 5 16 -48 -9 -119 -38 -107 -15 6 -39 16 -54 22 -40 16 -105 -51 -70
-73 18 -11 10 -22 -29 -36 -67 -26 -69 -68 -4 -110 28 -18 50 -51 50 -73 0
-57 118 -102 290 -111 77 -4 185 -20 240 -35 64 -18 108 -21 124 -9 15 12 37
12 60 0 126 -65 1419 -60 1547 6 70 37 361 351 518 560 65 88 143 187 172 220
53 59 243 342 318 472 179 311 391 721 391 758 0 11 31 82 68 156 91 181 212
497 212 554 0 57 -105 278 -205 434 -41 63 -99 161 -129 218 -31 57 -65 118
-76 136 -59 92 -78 135 -73 167 3 19 -9 41 -26 47 -17 7 -31 28 -31 47 0 18
-40 70 -89 113 -48 44 -95 105 -102 136 -8 30 -74 135 -147 233 -72 97 -154
215 -182 261 -71 120 -334 384 -369 371 -17 -6 -57 24 -101 78 -70 86 -156
120 -174 68 -4 -13 -24 -15 -51 -5 l-45 17 60 72 c69 84 70 82 -130 130 -142
33 -877 50 -1240 29z m-10 -122 c0 -11 -18 -20 -40 -20 -22 0 -40 -8 -40 -17
0 -10 29 -17 63 -16 35 1 68 -9 72 -23 9 -25 -62 -24 -88 2 -7 7 -25 4 -40 -8
-37 -31 -208 -5 -195 30 5 14 56 34 114 45 146 29 154 29 154 7z m632 -22 c16
-13 27 -9 35 11 13 33 84 42 102 13 24 -39 -56 -66 -213 -72 -91 -3 -191 -12
-221 -20 -47 -12 -55 -8 -55 28 0 23 -10 42 -21 42 -12 0 -17 7 -12 15 14 22
357 7 385 -17z m268 21 c0 -28 -51 -79 -79 -79 -31 0 -26 32 10 69 37 36 69
41 69 10z m-1434 -199 c6 -22 2 -40 -9 -40 -11 0 -10 -16 2 -39 32 -59 25 -76
-10 -25 -36 51 -135 63 -116 14 8 -22 -3 -30 -39 -30 -49 0 -50 2 -22 58 20
40 40 55 65 49 20 -6 48 4 62 22 35 42 54 39 67 -9z m1517 19 c38 -21 32 -64
-18 -123 -16 -18 -24 -42 -17 -52 7 -11 -47 -20 -130 -21 -517 -4 -734 -433
-454 -896 55 -92 162 -205 381 -402 19 -18 30 -37 23 -43 -6 -7 -24 6 -40 27
-15 21 -28 30 -28 19 0 -11 11 -31 24 -44 20 -20 20 -34 -1 -66 -19 -32 -20
-48 -2 -70 33 -39 57 -35 47 7 -19 82 57 132 138 92 71 -36 96 -67 53 -67 -12
0 -16 -9 -9 -20 7 -11 21 -20 32 -20 11 0 15 8 9 18 -20 33 35 35 118 4 340
-126 770 40 851 329 109 389 -349 959 -875 1090 -109 28 -140 74 -64 94 32 8
39 21 30 56 -15 61 21 81 53 30 36 -58 63 -51 48 14 l-13 55 42 -55 c23 -30
55 -55 71 -55 15 0 28 -9 28 -20 0 -11 12 -20 26 -20 37 0 134 -47 134 -65 0
-8 14 -15 30 -15 17 0 30 -10 30 -21 0 -12 7 -17 16 -11 9 5 33 -18 53 -52 21
-35 74 -99 119 -145 122 -122 232 -246 232 -261 0 -8 25 -47 56 -87 64 -82
116 -200 107 -240 -3 -17 4 -21 19 -12 15 10 19 7 10 -8 -18 -29 -25 -476 -8
-494 35 -35 54 16 26 70 -28 55 -27 57 14 46 27 -7 51 2 69 26 23 32 27 32 27
4 0 -18 -16 -43 -35 -55 -29 -18 -27 -20 13 -9 39 11 46 7 36 -19 -17 -42 4
-41 40 3 26 32 28 29 18 -25 -6 -33 -6 -49 0 -35 12 27 88 35 88 9 0 -9 -11
-27 -24 -40 -18 -18 -18 -30 -1 -47 18 -18 27 -16 36 7 7 20 27 28 50 21 27
-7 39 1 39 24 0 18 8 28 19 22 10 -6 24 -3 31 9 19 30 64 24 78 -11 7 -19 3
-26 -9 -18 -24 15 -179 -82 -179 -111 0 -11 -17 -20 -38 -20 -90 0 -103 -185
-15 -208 32 -8 44 -28 47 -76 4 -49 0 -58 -14 -36 -22 34 -26 19 -8 -28 7 -18
25 -32 41 -32 39 0 59 60 25 81 -34 21 -23 30 57 46 50 9 65 5 65 -17 0 -17
11 -30 25 -31 15 0 11 -11 -10 -27 -51 -39 -43 -72 18 -72 47 0 51 6 40 60 -9
45 -5 60 18 60 21 0 26 -13 18 -48 -7 -28 -2 -54 13 -63 17 -11 21 -6 12 18
-11 29 -7 31 27 12 22 -11 35 -30 28 -40 -6 -10 3 -19 20 -19 18 0 31 -17 31
-42 0 -35 8 -40 45 -29 25 7 57 15 72 17 40 6 47 -101 11 -156 -16 -25 -27
-53 -24 -63 8 -24 -47 -151 -78 -183 -14 -15 -26 -39 -26 -53 0 -14 -19 -50
-42 -79 -23 -30 -55 -102 -70 -162 -28 -107 -115 -305 -183 -420 -151 -252
-205 -350 -205 -369 0 -30 -208 -350 -300 -460 -41 -50 -89 -118 -106 -151
-32 -63 -221 -282 -408 -473 -117 -119 -244 -161 -486 -158 -167 2 -206 5
-245 22 -41 18 -40 19 10 9 31 -6 55 -2 55 10 0 11 38 21 85 21 47 1 148 18
225 38 77 20 147 33 155 28 38 -23 374 324 451 466 14 27 33 44 42 38 8 -5 15
2 15 16 0 45 153 258 193 269 26 7 30 14 13 25 -13 8 -18 25 -10 37 7 12 22
17 32 11 11 -6 20 -4 21 5 5 62 20 98 49 119 18 13 28 32 22 42 -15 25 43 105
75 105 17 0 23 17 17 50 -7 36 -1 50 21 50 18 0 36 25 44 60 7 34 55 124 107
202 51 77 93 147 93 154 0 29 117 274 143 300 15 15 27 37 27 50 0 14 9 12 20
-6 12 -18 20 -20 20 -6 0 13 -9 29 -19 35 -23 14 -7 67 34 115 17 19 25 48 18
65 -7 19 -1 31 17 31 17 0 24 12 17 30 -6 17 0 30 13 30 19 0 20 6 1 28 -18
23 -16 33 13 49 30 18 32 27 11 61 -15 26 -17 45 -4 52 31 20 5 44 -66 60
l-65 16 70 14 c39 7 -99 12 -306 10 -382 -4 -448 8 -330 56 l66 27 -54 11
c-64 12 -79 3 -111 -69 -22 -49 -34 -55 -123 -55 -129 0 -536 -69 -705 -120
-144 -43 -256 -143 -325 -290 -18 -37 -42 -74 -53 -81 -11 -6 -14 -21 -7 -32
6 -11 -7 -25 -30 -31 -23 -6 -42 -26 -42 -44 0 -18 -22 -66 -50 -106 -27 -41
-50 -83 -50 -95 0 -12 -7 -21 -15 -21 -24 0 -92 -180 -92 -242 0 -31 -11 -61
-25 -66 -14 -5 -20 -27 -14 -49 6 -26 21 -36 41 -28 21 8 27 3 18 -17 -7 -15
-19 -44 -26 -64 -7 -20 -23 -32 -37 -27 -14 6 -24 -1 -23 -14 2 -12 -6 -25
-17 -27 -11 -2 -17 10 -14 25 7 37 -24 37 -54 1 -28 -34 1 -121 46 -139 53
-20 38 -73 -19 -73 -30 0 -46 -9 -39 -20 7 -12 20 -16 28 -11 9 5 26 -12 39
-40 12 -27 14 -49 4 -49 -10 0 -22 11 -28 25 -8 19 -14 19 -29 -3 -24 -33 -64
-12 -64 34 0 67 -103 -66 -110 -142 -4 -40 -13 -92 -21 -117 l-14 -44 -27 49
-27 48 0 -55 c-1 -30 8 -55 19 -55 12 0 6 -23 -12 -51 -18 -27 -38 -46 -44
-40 -5 5 2 24 16 41 36 44 7 37 -40 -10 -22 -22 -62 -40 -90 -40 -27 0 -51 -9
-53 -20 -9 -58 -4 -70 30 -70 21 0 53 -22 70 -49 21 -31 23 -43 7 -33 -57 35
-88 -3 -50 -62 20 -30 26 -48 14 -41 -36 22 -154 -138 -132 -178 11 -18 14
-49 9 -70 -5 -20 0 -37 12 -37 12 0 17 -13 10 -29 -9 -26 -16 -25 -44 3 -31
31 -33 31 -39 0 -10 -52 -144 27 -144 84 0 11 -12 27 -27 36 -42 26 -57 86
-20 86 20 0 27 -11 20 -30 -7 -17 -4 -30 5 -30 31 0 36 49 12 108 l-25 59 -54
-54 c-29 -29 -48 -62 -41 -73 12 -19 -33 -80 -59 -80 -21 0 -11 102 18 171 27
65 57 95 46 47 -3 -13 6 -27 20 -32 16 -6 23 7 20 35 -7 59 94 93 139 48 40
-41 145 24 116 72 -7 10 -3 19 9 19 14 0 17 21 9 55 -20 86 -43 98 -91 47 -34
-37 -57 -45 -117 -36 -65 8 -74 5 -66 -27 8 -29 1 -34 -32 -25 -46 12 -47 15
-29 81 7 29 27 45 54 45 24 0 83 14 131 31 49 17 94 23 100 13 29 -43 134 15
160 89 15 41 47 94 72 119 25 25 41 51 35 57 -7 6 -3 11 8 11 12 0 31 23 43
50 14 30 40 50 65 50 49 0 186 141 161 166 -10 10 -36 8 -60 -5 -30 -16 -53
-16 -82 -1 -62 33 -46 74 26 62 52 -9 122 101 125 198 2 58 16 115 34 135 40
45 107 265 125 406 7 60 22 118 32 128 10 10 18 71 18 134 0 63 7 119 16 125
24 14 13 211 -15 281 -46 117 -187 401 -212 431 -14 17 -27 37 -27 45 0 9 -15
36 -33 60 -17 25 -112 162 -209 304 -98 143 -228 316 -290 385 -90 101 -110
135 -99 171 12 42 11 42 -14 9 -26 -34 -31 -32 -74 26 -44 60 -45 65 -12 102
34 36 33 38 -12 38 -37 0 -42 5 -23 24 13 13 23 38 22 55 -1 21 -5 23 -11 6
-14 -34 -67 -32 -67 3 0 15 14 38 30 52 21 17 30 18 30 2 0 -12 14 -22 30 -22
17 0 31 -7 32 -15 1 -8 6 -46 10 -85 11 -100 22 -121 57 -108 17 7 31 4 31 -7
0 -27 219 -329 311 -429 137 -147 369 -433 369 -453 0 -11 18 -26 40 -33 22
-7 40 -22 40 -34 0 -11 83 -102 185 -202 102 -100 183 -190 180 -199 -4 -10 3
-12 15 -5 11 7 20 0 20 -15 0 -14 19 -28 43 -30 24 -2 50 -13 57 -25 42 -68
847 -11 1043 73 97 42 206 154 190 197 -7 19 -4 27 7 20 11 -7 20 10 20 38 0
27 9 55 20 62 12 7 15 23 7 35 -8 13 -20 4 -30 -23 -9 -24 -26 -39 -37 -32
-12 8 -10 28 8 56 42 68 56 148 27 159 -16 6 -26 -10 -27 -46 -2 -55 -53 -128
-74 -106 -6 6 -22 4 -35 -3 -17 -11 -17 -19 2 -31 34 -21 42 -81 15 -113 -11
-14 -15 -26 -9 -26 32 0 -65 -86 -124 -111 -87 -37 -94 -36 -60 5 32 40 -6 23
-68 -30 -39 -34 -49 -6 -11 32 18 18 18 24 1 24 -13 0 -33 -18 -45 -40 -12
-22 -31 -40 -42 -40 -11 0 -14 10 -7 22 8 12 -10 7 -39 -12 -50 -33 -210 -46
-251 -20 -10 6 -24 2 -31 -10 -34 -55 -134 -22 -120 40 8 38 5 60 -8 60 -21 0
-30 -25 -24 -72 7 -61 -95 -75 -165 -21 -63 48 -68 49 -58 11 9 -37 1 -35 -84
19 -98 62 -261 221 -255 248 2 8 -4 13 -14 10 -9 -3 -63 42 -119 100 -55 58
-90 105 -77 105 13 0 2 12 -26 26 -27 14 -65 56 -84 95 -19 38 -35 63 -35 55
-1 -8 -22 5 -47 30 -26 24 -44 50 -40 57 3 7 -10 19 -29 26 -29 11 -30 16 -4
32 16 10 19 19 6 19 -37 0 -229 182 -249 236 -11 27 -25 44 -32 37 -15 -15
-126 180 -126 220 0 15 -9 27 -20 27 -11 0 -20 13 -20 28 0 15 -14 33 -32 40
-28 11 -31 78 -9 187 4 20 65 -1 74 -26 10 -25 33 -29 112 -20 65 7 111 3 130
-13 24 -20 28 -16 22 23 -4 26 4 51 18 56 14 4 25 -6 25 -23 0 -19 11 -26 30
-19 21 8 26 27 17 62 -12 49 -10 51 51 38 87 -17 137 17 126 87 -4 30 2 61 14
69 12 7 22 4 22 -8 0 -32 95 -25 150 11 26 17 57 26 68 19 11 -6 18 6 17 27
-3 30 -11 35 -38 20 -58 -31 -169 -20 -222 22 -39 30 -68 37 -118 27 -67 -13
-67 -13 -30 29 43 48 98 55 471 59 137 2 265 -6 285 -16z m-1243 -49 c0 -17
-19 -31 -45 -32 -25 -1 -71 -3 -103 -5 -70 -4 -94 40 -28 53 107 20 176 14
176 -16z m-70 -103 c30 -34 130 -53 130 -24 0 14 16 9 39 -12 22 -20 68 -42
103 -49 41 -8 70 -29 80 -58 29 -78 -35 -78 -116 -2 -39 38 -75 58 -79 46 -11
-29 -99 -12 -129 24 -36 44 -60 33 -46 -22 11 -46 4 -54 -44 -49 -6 1 -23 -14
-37 -33 -22 -30 -26 -25 -26 44 0 44 -6 99 -13 123 -16 49 97 59 138 12z
m-310 -110 c0 -12 -15 -16 -32 -9 -25 10 -29 4 -18 -23 20 -47 30 -223 13
-233 -55 -32 -108 32 -98 120 14 119 135 249 135 145z m860 13 c0 -16 -17 -30
-39 -30 -21 0 -44 -9 -51 -20 -7 -12 -22 -15 -33 -8 -27 16 43 85 88 87 19 0
35 -12 35 -29z m-1031 -28 c24 -39 -26 -117 -83 -128 -67 -13 -93 3 -31 19 27
7 48 33 55 69 13 58 38 74 59 40z m1571 -40 c0 -23 -58 -45 -82 -31 -10 6 -18
-3 -18 -21 0 -19 14 -29 33 -26 18 3 37 -7 41 -24 8 -27 7 -27 -12 0 -19 27
-31 15 -24 -25 1 -8 -5 -13 -13 -10 -25 8 -144 -90 -132 -109 6 -10 23 -8 38
5 15 12 36 17 46 11 10 -6 30 3 45 20 14 18 48 40 74 50 39 15 44 24 25 47
-27 32 40 82 85 64 13 -5 9 -11 -10 -11 -23 -1 -31 -13 -23 -33 9 -24 31 -28
98 -18 116 18 228 -20 231 -78 2 -33 5 -35 12 -8 12 47 40 44 143 -15 48 -28
104 -50 124 -50 24 0 34 -10 27 -28 -7 -18 2 -27 26 -25 23 2 38 -13 42 -42 4
-25 15 -40 25 -34 10 6 14 -2 7 -18 -16 -42 28 -61 66 -30 29 24 31 21 19 -27
-9 -38 -4 -59 17 -71 24 -13 17 -28 -39 -81 l-68 -65 -51 51 c-28 28 -79 56
-113 63 -54 11 -60 19 -50 62 25 99 -103 205 -248 205 -46 0 -67 14 -90 59
-35 68 -62 89 -92 71 -13 -8 -5 -38 22 -82 42 -67 42 -68 2 -68 -24 0 -57 28
-83 70 -52 84 -84 88 -131 15 -23 -35 -25 -46 -7 -32 32 27 98 -8 98 -51 0
-14 7 -20 16 -14 9 5 29 -7 44 -28 24 -33 45 -37 139 -27 190 19 305 -120 152
-184 -82 -34 -151 -38 -151 -8 0 12 -11 15 -23 7 -16 -10 -20 -4 -11 20 9 23
6 29 -10 20 -33 -21 -136 -26 -136 -7 0 9 16 21 35 26 28 8 27 10 -5 7 -22 -2
-51 4 -64 12 -13 8 -28 6 -35 -4 -30 -49 -166 133 -160 212 2 25 -4 40 -13 35
-9 -6 -11 -26 -4 -45 9 -27 5 -26 -23 6 -30 35 -33 35 -23 4 8 -24 4 -31 -11
-22 -16 10 -20 -1 -11 -34 12 -46 11 -47 -17 -9 -17 22 -25 52 -20 66 6 15 2
22 -9 15 -12 -7 -14 2 -6 23 8 21 16 26 21 11 14 -41 40 -26 37 21 -1 25 8 43
21 41 13 -3 28 9 35 26 7 19 3 25 -11 16 -14 -8 -18 -5 -10 8 8 12 32 18 55
14 26 -5 38 1 32 16 -11 32 -76 18 -107 -23 -18 -25 -30 -27 -48 -10 -18 18
-10 32 33 60 98 64 228 104 228 69z m1092 -117 c-18 -18 -112 46 -112 76 0 30
9 27 59 -17 33 -28 57 -55 53 -59z m-2872 74 c0 -41 -59 -159 -79 -159 -12 0
-21 -11 -21 -24 0 -13 -31 -56 -69 -95 -177 -181 -461 -637 -599 -961 -59
-140 -79 -190 -80 -206 -1 -8 -15 -24 -32 -34 -16 -11 -23 -20 -14 -20 9 0 9
-11 1 -25 -9 -14 -18 -41 -21 -61 -3 -19 -20 -58 -38 -85 -18 -27 -26 -49 -18
-49 8 0 6 -11 -5 -25 -12 -14 -36 -81 -56 -151 -19 -69 -42 -130 -51 -135 -9
-6 -11 -23 -5 -39 6 -15 -4 -49 -21 -74 -30 -42 -32 -43 -35 -5 -5 66 -8 78
-31 119 -17 32 -10 67 33 170 91 221 130 300 146 300 8 0 15 17 15 37 0 21 16
59 36 85 19 27 45 71 57 98 137 318 388 770 466 840 45 40 201 242 228 293 18
35 55 81 82 103 27 21 44 44 37 51 -14 14 31 73 56 73 10 0 18 -9 18 -21z
m133 -105 c7 -8 -5 -14 -28 -14 -23 0 -56 -5 -73 -12 -18 -7 -32 -3 -32 8 0
34 103 48 133 18z m1398 -38 c3 -19 -1 -34 -8 -33 -63 8 -74 -48 -25 -139 30
-57 22 -148 -15 -160 -20 -6 -23 3 -13 35 16 50 -6 192 -26 172 -25 -26 -4
-233 30 -284 32 -49 32 -51 -4 -44 -75 14 -103 298 -41 427 35 75 93 90 102
26z m1401 -13 c3 -50 -22 -57 -40 -11 -19 49 -14 72 13 63 14 -5 26 -28 27
-52z m-2618 -106 c170 -84 466 -367 466 -445 0 -61 55 -204 72 -187 6 6 1 31
-12 54 -12 24 -19 67 -15 97 l7 54 22 -50 c12 -27 41 -68 65 -89 23 -21 58
-70 76 -108 18 -38 54 -92 79 -120 26 -28 43 -62 37 -76 -5 -15 7 -35 27 -46
20 -11 48 -47 62 -80 14 -34 32 -61 41 -61 9 0 23 -20 30 -45 8 -25 31 -66 52
-93 20 -26 37 -65 37 -86 0 -21 7 -34 15 -29 48 29 25 -279 -24 -331 -61 -65
-65 -85 -11 -56 58 31 105 155 94 250 l-9 80 27 -63 c51 -121 -106 -404 -172
-307 -5 8 -28 7 -50 -1 -34 -14 -35 -16 -5 -18 19 0 35 -11 35 -22 0 -48 162
71 195 144 19 42 42 76 50 76 24 1 18 -24 -27 -109 l-43 -80 54 50 c60 55 55
6 -6 -66 -28 -33 -28 -35 6 -21 26 10 33 7 23 -10 -8 -13 -18 -79 -21 -147 -5
-91 -16 -130 -43 -150 -19 -14 -25 -26 -12 -26 16 0 18 -14 3 -51 -10 -29 -16
-91 -12 -138 10 -125 -167 -418 -230 -379 -9 6 -17 -7 -17 -28 0 -40 -47 -90
-106 -111 -47 -16 -25 -53 32 -54 l44 0 -45 -38 c-39 -32 -42 -46 -25 -92 12
-30 15 -60 8 -67 -7 -6 -17 -1 -22 11 -6 18 -26 17 -77 -5 -63 -26 -78 -23
-72 16 4 25 -94 -28 -105 -56 -11 -29 45 -68 97 -68 17 0 31 -13 31 -30 0 -17
18 -30 40 -30 49 0 50 -8 6 -59 -23 -27 -41 -33 -57 -20 -17 14 -34 4 -57 -31
-46 -69 -73 -46 -47 39 36 118 -14 151 -87 58 -32 -40 -58 -84 -58 -98 0 -15
-19 -32 -41 -39 -27 -9 -38 -24 -30 -44 6 -17 1 -44 -11 -59 -19 -23 -17 -25
11 -15 27 11 33 5 28 -24 -18 -93 -87 -42 -85 62 6 228 0 214 83 207 83 -8
141 75 89 127 -19 19 -24 12 -24 -30 0 -35 -11 -54 -30 -54 -16 0 -30 9 -30
20 0 11 -7 18 -15 15 -8 -3 -15 4 -15 15 0 11 7 18 15 15 8 -3 15 9 15 25 0
17 17 30 38 30 21 0 43 11 49 25 7 19 15 18 31 -5 23 -32 29 -18 23 55 -3 32
11 51 48 64 73 28 63 61 -19 61 -65 0 -162 62 -136 87 12 12 -94 59 -179 80
-30 8 -53 6 -50 -4 9 -33 -104 -122 -140 -111 -33 10 -33 10 -1 -11 29 -18 31
-31 12 -72 -25 -56 -52 -63 -69 -19 -9 24 -18 21 -48 -15 l-38 -45 0 44 c-1
31 -10 41 -31 33 -55 -21 -30 22 43 73 39 28 107 84 152 125 44 42 90 74 103
73 55 -7 122 7 84 16 -21 6 -29 16 -18 23 12 7 27 34 36 61 14 46 13 46 -31
16 -29 -21 -66 -28 -105 -20 -47 10 -57 6 -44 -14 11 -18 8 -21 -9 -11 -15 9
-36 -1 -54 -27 -16 -23 -47 -42 -68 -42 -22 0 -39 -10 -39 -21 0 -12 -8 -16
-19 -10 -10 6 -31 -6 -46 -28 -42 -60 -313 -118 -346 -73 -13 17 -35 32 -50
32 -14 0 -20 6 -13 13 7 7 -7 31 -31 53 -31 27 -37 42 -20 48 14 5 25 24 25
43 1 28 3 29 20 3 17 -26 19 -25 20 5 0 19 14 36 30 38 48 3 58 7 87 25 18 11
34 7 45 -10 13 -20 17 -21 18 -3 0 14 19 25 42 25 24 0 73 27 111 60 38 33 82
60 99 60 17 0 25 9 18 20 -17 27 124 86 173 73 20 -5 42 -1 48 9 6 10 20 18
31 18 11 0 15 -9 8 -20 -7 -11 -3 -20 9 -20 12 0 27 14 34 30 6 17 29 30 50
30 22 0 34 -9 27 -20 -7 -11 -3 -20 9 -20 11 0 21 9 21 21 0 11 11 19 25 18
53 -7 77 2 63 24 -10 16 -4 20 19 11 19 -8 33 -3 34 12 1 39 85 89 125 75 21
-7 36 -21 36 -32 -1 -10 19 -19 43 -19 25 0 43 -10 41 -22 -2 -13 16 -18 45
-13 32 6 53 -1 61 -23 7 -17 19 -27 28 -22 9 5 22 -6 29 -25 7 -19 4 -37 -8
-41 -11 -4 -21 -20 -21 -36 0 -15 -9 -28 -20 -28 -11 0 -20 -10 -20 -22 0 -12
-22 -40 -50 -62 -27 -21 -50 -52 -50 -69 0 -16 -9 -24 -20 -17 -11 7 -20 -2
-20 -19 0 -17 -7 -29 -15 -27 -8 2 -44 -11 -80 -30 -36 -19 -65 -27 -65 -16 0
10 11 23 25 29 14 6 3 8 -25 5 -59 -7 -143 26 -128 51 5 9 -4 11 -21 5 -17 -7
-31 -32 -30 -55 1 -126 281 -166 378 -54 23 26 41 40 41 31 0 -9 -15 -33 -33
-53 -31 -35 -31 -37 6 -37 29 0 45 24 65 95 15 52 38 104 51 115 39 32 131
186 131 220 0 16 11 31 25 33 14 2 35 4 47 5 37 4 88 55 88 87 0 23 -16 28
-68 19 -59 -9 -77 -2 -131 58 -66 72 -90 82 -113 45 -10 -16 -5 -18 14 -6 24
14 24 12 1 -17 -20 -25 -21 -34 -4 -34 13 0 21 -11 16 -25 -11 -32 -87 -31
-80 0 5 24 -46 14 -87 -18 -14 -10 -30 2 -44 33 -14 30 -34 45 -51 38 -16 -6
-34 -2 -41 9 -22 36 53 44 79 8 27 -37 29 -35 54 55 5 16 25 30 45 30 26 0 48
33 78 120 24 66 48 129 55 140 31 50 -11 506 -56 594 -15 30 -27 71 -27 93 0
21 -13 49 -30 63 -16 14 -30 41 -30 60 0 20 -15 41 -33 48 -29 12 -29 17 5 55
38 43 38 43 -16 30 -48 -12 -59 -5 -95 62 -23 44 -40 61 -40 40 -1 -48 -19
-44 -84 18 -35 34 -80 54 -128 57 -40 2 -79 12 -86 22 -19 26 -103 34 -103 10
0 -11 -13 -16 -28 -10 -15 6 -34 1 -41 -11 -7 -11 -40 -21 -73 -21 -106 0
-294 -158 -282 -237 4 -28 -7 -48 -30 -57 -20 -7 -42 -22 -50 -34 -25 -38 -43
7 -52 128 -6 81 -1 120 14 120 12 0 22 -9 22 -20 0 -11 14 -20 30 -20 46 0 36
56 -19 111 -66 66 -117 62 -180 -14 -50 -59 -133 -203 -143 -247 -3 -11 -19
-59 -36 -108 -52 -143 -26 -437 30 -337 13 23 13 48 -1 73 -32 60 -28 113 6
84 22 -18 29 -2 39 89 13 131 54 203 125 221 77 19 81 -4 13 -74 -56 -58 -98
-151 -77 -172 5 -5 25 19 45 53 34 57 98 97 120 75 6 -5 -23 -44 -64 -87 -89
-94 -148 -223 -144 -318 4 -97 -25 -121 -97 -80 l-57 33 57 -12 c36 -7 52 -4
43 9 -7 12 -25 21 -39 21 -15 0 -56 36 -92 81 -79 100 -104 88 -30 -15 43 -61
36 -57 -39 24 -89 95 -91 97 -50 25 37 -63 39 -75 13 -75 -21 0 -28 -11 -19
-33 10 -27 5 -31 -26 -20 -29 10 -27 3 12 -30 l50 -42 -50 13 c-48 14 -49 13
-11 -17 41 -33 89 4 62 47 -17 28 53 46 77 20 17 -18 12 -20 -17 -10 -38 14
-38 13 0 -31 38 -42 38 -43 1 -30 -30 11 -33 9 -15 -13 12 -15 16 -35 8 -43
-8 -9 5 -10 30 -2 27 8 45 5 45 -8 0 -11 -11 -19 -25 -16 -16 3 -23 -18 -21
-60 2 -44 -6 -65 -25 -65 -17 0 -23 -12 -15 -33 8 -22 4 -29 -16 -23 -15 6
-25 26 -22 45 11 58 -27 18 -67 -72 -28 -62 -32 -86 -14 -92 61 -20 23 -65
-56 -65 -50 0 -77 -8 -69 -20 7 -12 23 -15 34 -7 13 8 16 4 8 -10 -19 -31
-106 -29 -126 2 -21 33 -21 235 0 235 10 0 13 16 9 35 -4 19 8 77 27 128 20
51 30 98 24 105 -7 7 -2 12 11 12 13 0 23 14 23 30 0 17 9 30 20 30 11 0 20
-9 20 -20 0 -11 10 -20 23 -20 13 0 7 17 -13 40 -20 22 -29 47 -20 55 8 8 19
4 24 -10 5 -14 19 -25 31 -25 12 0 5 18 -14 39 -34 38 -34 43 -1 113 26 55 39
66 52 46 11 -18 17 -20 18 -4 0 13 -10 30 -22 37 -15 10 -15 20 0 35 12 12 22
36 22 53 1 111 392 783 553 951 202 210 273 229 481 127z m1237 -228 c-18 -27
-41 -49 -53 -49 -11 0 -2 26 21 58 22 32 42 75 44 95 2 27 5 24 11 -9 5 -26
-5 -68 -23 -95z m129 -13 c25 9 26 6 3 -22 -31 -37 -12 -82 28 -66 15 6 33 2
40 -9 6 -10 29 -19 51 -19 33 0 36 -6 18 -40 -16 -30 -15 -40 4 -40 36 1 95
39 60 40 -15 0 -21 9 -14 20 7 11 3 20 -9 20 -34 0 -24 54 12 68 18 7 34 10
36 7 2 -3 47 -72 100 -153 83 -128 91 -150 63 -166 -75 -42 -26 -108 51 -68
27 14 74 32 104 39 l54 14 -44 -51 c-50 -57 -67 -64 -50 -20 16 41 7 38 -43
-16 l-43 -45 44 0 c25 0 63 18 85 40 54 55 169 114 192 100 11 -7 17 -5 15 5
-14 52 140 224 188 210 8 -2 15 9 15 25 0 16 17 39 39 50 62 34 75 23 24 -20
-26 -21 -38 -39 -26 -39 11 0 26 9 33 20 14 22 78 17 84 -6 3 -9 18 -29 35
-46 17 -17 26 -40 19 -50 -6 -11 -3 -31 8 -44 20 -25 18 -58 -6 -134 -10 -31
-7 -41 8 -31 55 34 -4 -79 -79 -153 -68 -65 -179 -125 -179 -96 0 11 -22 6
-50 -12 -40 -26 -50 -27 -50 -5 0 16 -6 19 -15 7 -24 -32 -92 -38 -74 -6 12
21 10 21 -12 1 -15 -14 -43 -25 -63 -25 -20 0 -37 11 -38 25 -1 18 -4 17 -12
-2 -9 -23 -14 -23 -28 0 -13 20 -17 20 -18 2 0 -35 -53 -31 -67 5 -9 22 -23
25 -59 12 -45 -18 -59 85 -15 118 7 6 -3 26 -23 45 -30 30 -36 30 -36 4 0 -16
-13 -35 -30 -42 -16 -6 -30 -23 -30 -37 0 -14 -13 -31 -28 -36 -20 -8 -27 3
-23 38 7 66 -25 82 -40 20 -9 -35 -22 -46 -45 -37 -21 8 -23 15 -8 20 38 13
28 34 -34 71 -41 24 -61 27 -66 11 -5 -13 -21 -18 -37 -13 -20 7 -10 19 31 37
79 35 76 33 60 59 -10 16 -21 16 -41 0 -19 -17 -39 -17 -73 1 -38 20 -42 19
-21 -3 44 -46 27 -60 -35 -28 -33 17 -60 41 -60 54 0 12 -21 50 -46 84 -82
109 -79 125 4 35 45 -48 77 -95 72 -104 -6 -8 17 -5 50 7 33 13 60 35 60 50 0
16 10 20 25 11 19 -11 18 -7 -1 17 -19 23 -20 36 -4 46 31 19 48 -2 49 -64 1
-29 14 -56 31 -61 25 -7 25 -5 2 11 -15 11 -22 35 -15 53 19 50 -28 115 -63
86 -20 -17 -31 -16 -43 3 -11 19 -20 20 -30 4 -7 -12 -4 -22 8 -22 39 0 22
-77 -20 -90 -63 -20 -111 49 -63 90 49 43 56 103 10 86 -32 -11 -32 -8 4 35
33 40 34 44 3 20 -58 -45 -80 12 -32 81 22 30 40 66 41 81 1 15 12 4 25 -25
14 -32 34 -48 53 -42z m741 -127 c46 -42 51 -114 9 -149 -21 -17 -30 -18 -30
-2 0 12 -9 22 -19 22 -11 0 -15 -13 -8 -30 7 -20 -1 -30 -26 -30 -20 0 -57 -6
-82 -13 -28 -7 -45 -3 -45 12 0 13 -22 52 -48 87 -27 35 -52 77 -55 92 -16 66
233 75 304 11z m-884 -36 c22 -26 12 -53 -20 -53 -8 0 -25 18 -37 40 -25 48
20 58 57 13z m1863 -119 c0 -36 -11 -77 -23 -89 -36 -36 -76 51 -50 110 30 69
73 56 73 -21z m149 -84 c16 -38 38 -70 50 -70 12 0 21 -10 21 -22 0 -16 -9
-15 -30 2 -31 25 -41 -2 -31 -78 3 -18 -7 -23 -30 -14 -19 7 -47 2 -63 -11
-24 -20 -26 -15 -15 29 10 39 5 57 -19 66 -35 14 -44 68 -11 68 12 0 15 10 7
23 -9 14 -5 18 8 10 12 -8 32 4 44 26 29 55 35 52 69 -29z m-3830 -214 c-56
-21 -73 -6 -39 34 20 24 31 25 54 6 25 -20 23 -26 -15 -40z m946 -73 c-10 -27
-6 -26 25 5 37 36 38 36 57 -5 11 -24 31 -43 47 -43 15 0 32 -27 39 -59 6 -33
22 -58 34 -55 13 2 20 -13 17 -33 -4 -22 2 -32 15 -24 19 12 23 3 29 -74 1
-14 9 -30 18 -37 24 -18 39 -123 15 -108 -12 7 -21 4 -21 -7 0 -10 -15 -24
-32 -31 -23 -9 -29 -4 -21 17 7 18 -4 34 -28 41 -43 14 -51 50 -17 84 15 15
15 26 -3 37 -15 9 -20 7 -12 -6 15 -24 -34 -71 -54 -51 -7 7 -13 29 -13 48 0
19 -13 48 -28 63 -16 16 -31 50 -35 77 -4 26 -18 49 -32 51 -51 5 -54 10 -15
27 34 14 34 17 5 19 -19 0 -49 24 -67 51 -26 40 -39 46 -61 28 -21 -18 -27
-15 -27 16 0 53 21 70 53 43 21 -17 27 -14 27 10 0 27 8 26 48 -9 31 -27 44
-55 37 -75z m-279 -121 c74 -50 97 -81 118 -156 21 -75 38 -96 86 -112 221
-71 354 -480 202 -623 -40 -38 -78 -95 -84 -128 -12 -57 -43 -82 -153 -122
-44 -16 -55 -14 -55 9 0 17 11 30 24 30 18 0 18 6 -1 25 -28 27 -92 -34 -72
-67 13 -21 -122 -46 -151 -28 -12 7 -16 31 -9 52 7 22 2 38 -11 38 -43 0 -80
52 -55 77 17 17 12 23 -21 23 -31 0 -44 12 -44 40 0 22 -8 40 -19 40 -10 0
-24 18 -31 40 -7 22 -24 40 -37 40 -13 0 -40 27 -60 60 -19 33 -46 60 -60 60
-84 0 -213 180 -148 207 14 5 0 11 -29 11 -41 2 -62 -12 -83 -53 -37 -73 -153
-436 -153 -480 0 -41 134 -265 201 -336 28 -30 36 -49 20 -49 -21 0 -21 -6 -1
-30 21 -26 16 -28 -38 -17 -40 8 -62 4 -62 -10 0 -13 -16 -24 -35 -25 -23 -1
-26 -5 -9 -12 18 -7 9 -20 -27 -38 -66 -34 -85 -36 -53 -4 46 46 28 80 -35 66
-66 -14 -101 27 -101 118 0 29 -16 59 -38 71 -50 27 -148 195 -130 224 9 16 5
18 -14 7 -19 -11 -22 -9 -8 5 11 11 43 26 70 34 46 12 47 11 14 -16 -30 -24
-31 -30 -5 -40 17 -6 31 -29 31 -50 0 -43 51 -94 67 -68 6 10 7 48 3 84 -6 46
17 134 73 279 45 117 83 230 86 252 2 22 14 40 25 40 11 0 46 30 77 67 63 76
174 81 250 12 24 -22 54 -30 87 -21 62 15 128 -6 89 -30 -14 -9 -20 -22 -12
-30 8 -7 35 1 62 18 43 28 50 28 83 -2 23 -22 30 -24 20 -6 -12 21 -8 25 17
16 18 -7 33 -3 33 8 0 11 9 15 19 9 19 -12 73 66 65 94 -7 25 37 17 67 -14 39
-39 37 -49 -24 -105 -38 -36 -46 -55 -30 -71 16 -16 32 -13 59 11 69 63 156
-19 185 -171 22 -116 33 -135 50 -89 7 18 2 65 -11 104 -13 40 -26 85 -28 100
-2 16 -19 45 -37 65 -18 20 -46 66 -61 102 -15 36 -36 65 -46 64 -10 0 -18 8
-18 20 0 28 -54 59 -79 45 -12 -7 -10 0 4 15 45 49 26 58 -63 30 -60 -17 -95
-20 -109 -6 -25 25 -90 3 -73 -25 7 -11 -2 -20 -19 -20 -18 0 -31 17 -31 41 0
26 8 36 23 27 14 -9 18 -5 9 9 -8 13 -32 23 -54 23 -28 0 -35 -8 -24 -25 9
-14 16 -43 16 -65 0 -27 11 -38 34 -34 19 3 44 -13 56 -36 31 -58 -24 -75 -94
-29 -31 20 -57 26 -61 15 -8 -25 -110 -8 -130 22 -37 56 -14 145 54 211 38 37
75 92 81 122 36 161 193 187 376 61z m3340 -160 c-5 -21 0 -44 12 -51 39 -24
24 -42 -38 -47 -70 -5 -78 10 -18 33 39 14 40 18 11 47 -32 32 -25 56 18 56
15 0 21 -16 15 -38z m-248 -60 c44 -43 53 -61 32 -69 -16 -6 -33 5 -40 26 -6
20 -30 42 -53 47 -22 6 -35 21 -28 33 19 30 22 28 89 -37z m362 -47 c27 -47
50 -94 50 -105 0 -11 20 -42 44 -69 49 -54 44 -81 -18 -81 -31 0 -38 10 -30
40 6 22 2 35 -8 29 -10 -6 -18 -2 -18 10 0 42 -3 52 -29 81 -14 17 -30 48 -36
70 -6 22 -17 56 -25 75 -28 68 21 33 70 -50z m-2835 -100 c-21 -85 -56 -120
-85 -85 -21 25 -18 30 19 30 24 0 38 9 31 20 -7 12 -21 16 -31 9 -10 -6 -13 2
-7 19 6 16 26 34 45 39 18 4 34 9 36 11 2 1 -2 -18 -8 -43z m-685 10 c-1 -41
-96 -105 -108 -73 -21 55 -13 71 28 58 23 -7 40 -4 40 9 0 11 9 21 20 21 11 0
20 -7 20 -15z m-830 -118 c27 -10 28 -16 7 -29 -20 -13 -21 -17 -2 -18 14 0
25 -13 25 -30 0 -39 -12 -38 -56 6 -20 20 -33 47 -29 60 10 28 11 28 55 11z
m303 -197 c-7 -17 5 -38 28 -51 22 -11 34 -30 28 -41 -7 -12 3 -32 22 -46 24
-18 32 -43 25 -79 -9 -43 -5 -49 17 -31 46 39 93 -18 80 -96 -6 -38 -2 -66 9
-66 11 0 15 9 8 20 -8 12 15 18 59 15 58 -4 107 -35 55 -35 -8 0 -17 -18 -19
-40 -3 -42 24 -54 45 -20 18 29 38 25 90 -20 46 -40 46 -40 3 -40 -24 0 -43
-9 -43 -21 0 -13 -17 -11 -45 4 -91 51 -167 13 -150 -74 5 -27 -2 -59 -18 -71
-20 -17 -27 -17 -27 -1 0 13 -20 20 -45 18 -38 -4 -45 4 -42 56 2 51 -5 61
-40 60 -32 -1 -45 13 -49 54 -4 31 -16 50 -27 43 -71 -44 -189 218 -122 272
22 18 47 54 55 81 21 67 70 139 94 139 11 0 15 -13 9 -30z m3917 -79 c-7 -33
-16 -79 -19 -101 -8 -54 -54 -150 -72 -150 -19 0 -40 -71 -50 -167 -4 -42 -19
-91 -32 -107 -14 -17 -35 -50 -47 -73 -11 -24 -73 -70 -136 -103 -124 -64
-260 -215 -285 -317 -14 -54 -12 -55 28 -30 24 15 43 43 43 63 0 53 78 149
185 228 108 79 169 81 90 3 -28 -29 -71 -91 -96 -139 -24 -49 -57 -103 -73
-121 -16 -19 -46 -64 -66 -100 -20 -37 -45 -65 -55 -63 -11 2 -15 -19 -9 -48
6 -32 2 -47 -11 -39 -11 7 -20 -8 -20 -36 0 -26 -19 -68 -42 -93 -24 -25 -43
-55 -43 -67 0 -12 -20 -44 -45 -72 -73 -82 -143 -186 -113 -168 16 9 13 -2 -7
-24 -19 -22 -35 -51 -35 -64 0 -12 -9 -23 -20 -23 -11 0 -20 -13 -20 -30 0
-16 -8 -30 -17 -30 -10 0 -41 -34 -69 -75 -164 -236 -420 -419 -558 -397 -40
7 -79 4 -85 -7 -7 -10 -102 -17 -211 -15 -110 2 -203 -4 -206 -14 -3 -10 -25
-8 -48 5 -23 12 -94 27 -158 34 -142 13 -175 37 -160 115 10 47 4 60 -29 68
-61 16 -41 78 21 69 28 -4 57 -17 65 -30 10 -17 14 -17 15 0 0 12 -29 45 -65
72 -98 74 -91 160 25 298 50 58 88 114 85 123 -3 9 10 14 30 11 19 -2 69 2
112 10 89 18 149 -14 111 -59 -15 -19 -33 -22 -55 -9 -26 14 -63 -14 -178
-135 -154 -163 -169 -194 -104 -214 49 -16 221 30 206 55 -6 9 13 40 41 69 29
28 52 67 52 86 0 20 19 40 42 46 29 8 38 3 31 -16 -7 -18 -1 -24 17 -17 21 8
26 -6 20 -56 -7 -65 -6 -65 16 -17 13 28 40 62 60 77 20 15 32 40 26 56 -7 18
7 35 38 47 28 11 50 24 50 29 0 19 -75 0 -108 -27 -19 -16 -32 -18 -32 -6 0
12 9 27 20 34 11 7 20 22 20 34 0 12 -18 6 -40 -14 -22 -20 -40 -31 -40 -24 0
26 47 114 62 114 39 0 78 -27 78 -55 0 -18 6 -26 13 -19 7 8 25 4 40 -8 15
-13 42 -16 61 -9 30 11 30 16 6 31 -24 15 -21 18 10 17 22 0 75 6 117 14 54
11 82 7 93 -10 8 -14 28 -22 43 -17 17 6 6 20 -31 40 -37 19 -49 35 -35 44 13
8 37 0 55 -17 44 -45 111 -57 177 -32 31 12 61 18 67 12 13 -14 -89 -51 -142
-52 -28 0 -68 -32 -109 -87 -75 -99 -78 -112 -29 -112 20 0 46 -10 58 -22 16
-16 26 -11 35 18 19 61 164 184 232 197 62 13 76 36 34 55 -14 6 -7 10 15 8
22 -1 57 5 77 14 24 10 43 6 55 -12 19 -31 21 -29 28 42 2 28 11 66 19 85 12
27 6 35 -27 35 -31 0 -42 -12 -42 -50 0 -27 -7 -51 -15 -53 -8 -1 -34 -4 -57
-7 -24 -2 -55 -12 -70 -21 -22 -13 -23 -11 -5 12 13 16 22 53 20 83 l-3 55
-46 -49 c-60 -66 -137 -83 -199 -46 -48 29 -62 73 -18 58 151 -53 312 73 261
205 -7 18 -3 33 10 33 12 0 22 -9 22 -21 0 -40 88 -139 124 -139 20 0 37 -11
38 -25 1 -20 3 -20 11 0 6 14 23 25 40 25 16 0 51 22 78 49 59 59 65 37 9 -34
-42 -54 -54 -106 -20 -85 11 7 20 -3 20 -22 0 -31 4 -31 42 4 61 55 92 118 50
102 -27 -11 -31 -2 -23 52 16 106 59 214 85 214 13 0 30 32 37 71 16 81 137
212 278 302 92 57 121 96 56 73 -46 -16 -159 -98 -240 -173 -57 -54 -91 -55
-50 -2 8 11 0 4 -18 -16 -35 -37 -106 -27 -84 12 8 13 6 16 -5 6 -10 -9 -19
-25 -20 -35 -2 -10 -4 -29 -6 -43 -2 -15 -11 -12 -23 9 -13 23 -14 58 -2 100
11 37 20 50 21 31 3 -51 42 -43 45 10 18 272 -116 319 -172 60 -8 -36 -23 -60
-33 -54 -25 16 -22 -54 4 -91 18 -25 20 -23 9 8 -7 22 -1 46 13 55 43 27 59
19 46 -23 -7 -22 -4 -40 7 -40 11 0 30 -32 43 -70 l23 -70 38 45 c21 25 38 37
38 28 1 -10 15 -7 31 7 42 35 38 17 -22 -83 -29 -49 -47 -67 -42 -42 10 46
-45 35 -76 -15 -20 -32 -55 -23 -43 10 7 17 4 30 -5 30 -26 0 -43 -56 -20 -64
11 -4 9 -21 -6 -41 -36 -49 -218 -112 -267 -93 -36 14 -35 15 7 17 31 1 52 19
66 56 11 30 56 80 99 110 43 30 79 70 79 89 0 29 -4 29 -29 -5 -29 -38 -30
-38 -30 4 -1 23 -13 47 -28 53 -19 7 -24 -3 -18 -35 5 -26 -2 -53 -15 -61 -16
-10 -21 0 -17 31 9 59 -66 68 -122 16 -22 -21 -64 -38 -95 -39 -51 -2 -50 -4
14 -18 39 -8 88 -21 110 -29 39 -14 39 -14 1 17 -35 29 -35 32 -4 32 20 0 30
9 23 20 -7 11 0 15 16 9 33 -13 36 -70 4 -102 -16 -16 -34 -16 -59 -2 -20 11
-81 15 -137 10 -89 -9 -97 -7 -64 18 21 15 27 27 13 27 -14 0 -19 10 -11 23
10 17 3 19 -24 8 -21 -8 -49 -17 -62 -19 -14 -2 -32 -12 -40 -21 -9 -9 16 -11
54 -4 l70 13 -65 -39 c-70 -44 -86 -81 -30 -72 19 4 34 14 32 24 -4 19 185 32
238 15 19 -6 35 -20 35 -31 0 -12 -13 -16 -30 -9 -16 7 -43 17 -60 24 -16 7
-30 3 -30 -8 0 -11 23 -25 51 -32 28 -7 45 -22 39 -33 -8 -12 -26 -12 -51 1
-77 42 -259 -66 -259 -153 0 -29 11 -24 50 26 109 139 226 120 200 -32 -23
-135 -138 -184 -218 -92 -23 27 -67 53 -97 58 -30 6 -64 16 -76 23 -11 8 -44
-2 -72 -20 -43 -28 -55 -29 -69 -7 -10 15 -18 19 -18 9 0 -11 -22 2 -50 28
-27 26 -50 39 -50 30 0 -28 64 -90 93 -90 15 0 27 -11 27 -24 0 -19 5 -19 24
0 51 51 133 28 184 -53 90 -142 172 -172 267 -97 33 25 60 1 31 -28 -63 -63
-334 -13 -311 58 14 40 -17 27 -57 -24 -48 -61 -148 -76 -221 -34 -61 35 -92
87 -59 98 32 11 -30 94 -89 121 l-51 23 36 -49 c20 -28 43 -50 51 -50 8 -1 15
-24 15 -53 0 -29 20 -68 45 -89 l45 -38 -60 17 c-43 12 -68 9 -86 -11 -14 -15
-18 -27 -10 -28 9 0 1 -9 -18 -20 -48 -28 -144 17 -113 54 12 15 14 27 4 27
-9 0 -6 7 6 16 33 20 57 124 29 124 -33 0 -26 60 9 73 19 7 26 26 18 49 -14
46 -5 47 77 6 81 -41 133 -105 134 -165 0 -46 2 -47 50 -15 37 24 50 26 50 7
0 -55 74 -76 124 -36 25 21 39 44 31 53 -9 8 -26 5 -39 -8 -13 -13 -38 -24
-55 -23 -23 0 -18 11 16 40 36 30 40 39 15 39 -18 0 -32 -10 -32 -22 0 -14
-20 -10 -51 11 -27 18 -57 28 -66 23 -9 -6 -36 15 -59 47 -23 32 -74 68 -113
81 -44 14 -71 36 -71 57 1 28 3 29 20 3 16 -24 19 -21 20 16 0 26 -8 41 -19
35 -10 -6 -24 -3 -31 9 -7 11 -2 20 10 20 12 0 35 32 51 70 16 39 38 70 49 70
11 0 40 22 63 49 24 27 51 45 60 39 9 -6 27 13 40 41 19 41 27 45 45 23 24
-30 252 -56 252 -29 0 10 20 18 45 20 l45 2 -45 9 c-25 5 -45 17 -45 27 0 10
-13 13 -28 7 -33 -13 -62 24 -32 42 11 7 20 4 20 -7 0 -11 16 -16 35 -13 19 4
42 8 50 8 8 1 15 15 15 30 0 20 32 30 110 35 61 4 110 -1 110 -10 0 -9 32 11
71 45 39 34 81 62 95 62 14 0 40 25 59 55 29 48 34 50 35 15 1 -38 3 -38 29
-4 18 24 32 29 41 14 9 -14 29 -5 58 26 25 27 57 52 71 57 15 5 23 20 19 34
-6 18 -26 10 -65 -26 -62 -57 -76 -62 -72 -26 8 59 -2 105 -17 80 -10 -15 -17
4 -18 47 -2 64 2 70 43 60 31 -8 58 3 91 38 25 27 52 45 59 41 7 -5 14 9 16
30 2 32 -7 28 -48 -21 -28 -33 -65 -60 -83 -60 -22 0 -8 26 47 85 l79 85 -81
-75 c-44 -41 -94 -75 -111 -75 -16 0 -41 -11 -54 -24 -13 -13 -29 -17 -37 -10
-7 8 20 46 60 85 41 40 89 94 106 121 18 28 45 45 59 40 15 -6 70 3 123 19
113 34 179 37 189 7 5 -15 24 -14 62 4 63 28 103 5 83 -49 -15 -39 -62 -44
-75 -8 -7 20 -14 20 -35 0 -15 -14 -45 -26 -68 -27 -34 -2 -35 -4 -6 -12 38
-10 50 -106 13 -106 -12 0 -17 -13 -11 -30 7 -16 3 -31 -8 -32 -10 -2 -28 -5
-39 -8 -11 -3 -33 -6 -50 -7 -16 -2 -30 -12 -30 -24 0 -14 12 -14 39 0 54 29
79 -16 29 -53 -21 -15 -36 -32 -33 -37 3 -5 1 -9 -5 -9 -5 0 -23 0 -39 0 -18
0 -25 12 -18 30 11 30 -23 43 -39 15 -36 -64 -32 -123 9 -129 44 -6 69 -86 34
-108 -9 -6 -17 -20 -17 -32 0 -13 11 -12 30 4 17 14 30 46 30 71 0 25 12 58
26 73 14 14 34 44 42 66 11 26 20 31 26 15 14 -38 49 -30 45 10 -7 72 3 97 23
55 15 -33 17 -31 11 18 -7 46 8 76 74 148 47 51 80 105 77 126 -6 36 110 76
151 51 9 -6 30 -2 45 7 47 29 85 -19 70 -89z m-911 34 c-2 -56 -99 -131 -143
-111 -25 11 -75 16 -111 11 -55 -8 -65 -3 -65 31 0 34 19 43 125 60 167 25
195 27 194 9z m-353 -109 c-10 -66 -54 -114 -105 -115 -16 -1 -54 -26 -86 -56
-39 -38 -61 -47 -71 -31 -10 16 -25 18 -45 5 -16 -10 -50 -19 -75 -19 -103 0
18 188 142 222 46 12 102 30 124 39 92 38 127 24 116 -45z m268 -148 c7 -21
-140 -177 -169 -179 -60 -4 -104 -38 -115 -90 -9 -40 -25 -59 -52 -59 -41 0
-51 30 -16 51 14 9 15 20 2 33 -29 29 -7 88 43 114 24 12 83 54 131 93 85 69
161 84 176 37z m-628 -121 c8 -7 4 -25 -7 -38 -15 -18 -10 -33 19 -53 22 -15
33 -37 26 -49 -20 -29 -124 -53 -124 -27 0 11 9 20 20 20 11 0 19 20 18 45 -1
27 -6 34 -12 17 -42 -106 -116 -128 -100 -30 18 108 105 171 160 115z m-168
-209 c12 -35 15 -72 8 -84 -37 -61 -79 -94 -118 -94 -24 0 -48 -12 -54 -27 -6
-15 -28 -32 -49 -38 -34 -8 -30 6 27 103 126 214 153 234 186 140z m-90 -263
c-31 -25 -62 -44 -68 -42 -5 2 -22 -6 -36 -18 -18 -15 -32 -15 -49 2 -17 17
-15 23 9 23 17 0 53 18 79 39 26 22 64 40 85 40 31 1 27 -7 -20 -44z m-1308
-339 c0 -44 -96 -135 -116 -110 -44 54 -5 147 58 138 32 -5 58 -17 58 -28z
m160 31 c0 -25 -103 -107 -121 -96 -22 13 -25 76 -6 96 17 17 127 17 127 0z
m-622 -53 c-17 -13 -28 -35 -24 -48 10 -29 -74 -128 -97 -114 -9 6 -8 27 3 47
14 28 11 40 -13 49 -64 25 20 81 133 89 26 1 25 -2 -2 -23z m-196 -14 c10 0
18 -9 18 -20 0 -11 -27 -20 -60 -20 -58 0 -75 18 -46 47 8 8 26 9 42 4 15 -6
36 -11 46 -11z m-53 -93 c19 7 28 4 21 -7 -7 -11 -25 -20 -40 -20 -14 0 -31
-11 -36 -25 -15 -44 -38 0 -24 46 10 32 19 37 30 19 9 -14 31 -20 49 -13z
m-48 -189 c19 -35 -22 -44 -54 -12 -7 8 -35 14 -60 14 -27 0 -47 12 -47 28 0
18 14 25 40 18 24 -7 40 -1 40 14 0 31 53 -9 81 -62z m759 11 c0 -16 -14 -63
-30 -103 -17 -40 -26 -88 -20 -108 7 -19 2 -40 -9 -47 -12 -8 -21 -3 -21 9 0
12 -10 16 -21 9 -12 -7 -17 -24 -12 -38 16 -43 -23 -87 -47 -51 -17 26 -19 26
-20 -2 0 -37 -75 -130 -91 -113 -22 21 17 161 54 198 45 45 48 113 7 171 -32
46 -14 74 37 55 16 -7 55 2 86 19 73 39 87 39 87 1z m-266 -36 c-5 -13 -28
-21 -51 -18 -27 3 -43 -7 -43 -25 0 -17 -9 -30 -21 -30 -23 0 14 81 47 103 29
19 77 -3 68 -30z m1426 -192 c0 -11 -17 -29 -39 -40 -50 -27 -75 9 -26 37 45
26 65 27 65 3z m-1834 -142 c8 -31 2 -40 -22 -35 -42 8 -58 76 -18 76 16 0 34
-19 40 -41z m517 -85 c-23 -26 -43 -58 -43 -72 0 -36 -49 -15 -56 25 -4 18 6
33 22 33 16 0 40 14 54 30 14 17 34 30 46 30 12 0 1 -21 -23 -46z m802 -84
c22 -30 18 -50 -10 -50 -42 1 -81 34 -67 57 16 26 55 22 77 -7z m-853 -193 c8
-13 -1 -34 -18 -47 -37 -27 23 -96 131 -149 30 -15 55 -44 55 -64 0 -44 -31
-49 -47 -8 -7 18 -46 31 -107 35 -53 3 -93 14 -89 24 3 10 -6 25 -20 34 -21
14 -19 17 7 18 28 0 30 10 16 61 -27 95 28 168 72 96z m869 -26 c-14 -17 -20
-44 -14 -61 7 -16 2 -30 -9 -30 -11 0 -16 -7 -10 -17 6 -9 -2 -16 -18 -16 -16
0 -24 7 -18 16 5 8 -22 13 -61 10 -57 -5 -66 -1 -47 22 13 15 40 23 60 18 25
-6 52 10 80 48 24 32 47 54 52 49 6 -5 -2 -23 -15 -39z"/>
<path d="M2630 6286 c-95 -39 -100 -42 -84 -59 7 -7 25 -2 41 10 15 13 62 36
105 52 43 15 65 28 48 29 -16 0 -66 -15 -110 -32z"/>
<path d="M2626 6211 c-31 -28 -45 -50 -32 -50 13 -1 37 13 53 29 17 17 39 30
50 30 12 0 26 9 33 20 25 40 -49 19 -104 -29z"/>
<path d="M2746 6208 c-123 -61 -136 -94 -67 -164 34 -34 61 -71 61 -84 0 -33
90 -159 139 -193 53 -38 166 -72 150 -46 -6 11 -22 19 -36 19 -62 0 -172 103
-197 185 -22 74 -77 155 -106 155 -5 0 -10 5 -10 10 0 6 0 21 0 34 0 13 41
-15 90 -64 50 -49 90 -104 90 -123 0 -52 98 -157 147 -157 39 0 37 4 -16 39
-64 43 -112 116 -98 152 5 13 -6 30 -24 37 -20 7 -28 25 -21 44 9 23 4 29 -17
21 -55 -21 -52 24 4 79 l55 54 -56 -34 c-88 -54 -139 -32 -54 23 81 51 60 59
-34 13z"/>
<path d="M3005 5666 c19 -5 35 -22 35 -37 0 -38 48 -37 80 1 20 24 19 30 -5
30 -17 0 -56 3 -87 7 -32 4 -42 4 -23 -1z"/>
<path d="M3105 5540 c13 -22 36 -40 50 -40 14 0 25 -8 25 -18 0 -25 166 -183
179 -170 6 6 -5 23 -24 37 -19 14 -35 33 -35 41 0 23 -134 150 -159 150 -12 0
-21 9 -21 20 0 11 -9 20 -20 20 -12 0 -10 -16 5 -40z"/>
<path d="M4672 5312 c-18 -39 -42 -76 -53 -82 -10 -7 -19 -33 -19 -57 0 -25
-13 -63 -29 -84 -34 -45 -40 -109 -11 -109 11 0 20 11 20 25 0 14 18 37 40 50
22 14 40 43 40 64 0 21 9 44 19 50 11 7 14 25 9 40 -6 15 4 51 23 80 24 36 28
60 15 73 -14 14 -31 -3 -54 -50z"/>
<path d="M3494 5215 c-12 -77 25 -115 110 -115 36 0 56 -10 56 -30 0 -58 34
-29 36 30 1 35 -9 60 -23 60 -13 0 -54 27 -90 60 -80 74 -76 74 -89 -5z"/>
<path d="M3772 5138 c-76 -90 -65 -132 19 -69 46 35 69 39 69 11 0 -12 -22
-31 -50 -44 -27 -12 -50 -34 -50 -49 0 -36 33 -34 47 3 7 17 27 30 45 30 26 0
30 13 19 70 -8 46 -5 70 9 70 12 0 17 9 10 20 -22 36 -66 21 -118 -42z"/>
<path d="M4296 5045 c-4 -41 -16 -53 -43 -49 -24 4 -34 -3 -28 -20 8 -21 70
-26 91 -7 26 26 38 131 14 131 -15 0 -30 -25 -34 -55z"/>
<path d="M4906 4968 c-21 -45 -18 -52 27 -73 58 -26 111 20 57 50 -16 9 -36
29 -44 44 -13 22 -22 17 -40 -21z"/>
<path d="M4892 4865 c-25 -25 17 -80 60 -78 31 2 45 12 38 29 -5 14 -1 21 10
14 11 -7 20 -4 20 7 0 18 -113 44 -128 28z"/>
<path d="M3491 4489 c-34 -25 -34 -29 -5 -29 19 0 34 -10 34 -21 0 -12 -9 -16
-20 -9 -11 7 -20 2 -20 -10 0 -49 50 -4 52 47 1 29 1 53 0 52 -1 0 -19 -13
-41 -30z"/>
<path d="M2404 2256 c-34 -34 -30 -96 7 -96 19 0 26 -10 17 -25 -7 -14 2 -10
22 8 25 24 31 49 22 85 -14 57 -32 64 -68 28z"/>
<path d="M3688 6148 c7 -17 12 -44 12 -60 0 -15 9 -28 20 -28 11 0 19 7 18 15
-8 45 5 86 22 75 11 -7 20 -3 20 9 0 11 -23 21 -52 21 -39 0 -49 -8 -40 -32z"/>
<path d="M2091 5955 c8 -25 26 -72 40 -105 34 -80 39 -9 5 84 -27 73 -67 92
-45 21z"/>
<path d="M2008 5911 c17 -27 32 -79 33 -115 0 -57 3 -61 22 -29 28 48 -16 193
-59 193 -24 0 -24 -8 4 -49z"/>
<path d="M2240 5820 c0 -33 9 -60 20 -60 11 0 20 27 20 60 0 33 -9 60 -20 60
-11 0 -20 -27 -20 -60z"/>
<path d="M2380 5827 c0 -22 -13 -57 -29 -78 -38 -50 -39 -71 -3 -57 29 11 64
143 43 163 -6 7 -11 -6 -11 -28z"/>
<path d="M2755 5142 c6 -17 25 -49 43 -70 18 -22 21 -32 7 -24 -27 16 -34 -40
-13 -96 16 -43 33 -40 64 9 34 55 -3 162 -67 192 -39 18 -44 17 -34 -11z"/>
<path d="M2891 4935 c16 -53 44 -87 59 -71 16 15 -32 116 -55 116 -10 0 -12
-20 -4 -45z"/>
<path d="M2933 4790 c-9 -33 -31 -77 -50 -98 -32 -36 -31 -37 14 -13 66 35 78
10 23 -49 -26 -28 -39 -50 -30 -50 37 0 150 152 149 200 l-2 50 -21 -45 c-30
-60 -52 -57 -60 10 l-6 55 -17 -60z"/>
<path d="M891 4721 c-6 -10 -1 -25 11 -32 15 -9 2 -23 -34 -38 -48 -20 -51
-26 -21 -37 24 -9 30 -6 21 9 -10 16 0 20 29 12 25 -6 38 -3 31 8 -7 11 12 14
45 7 l57 -12 -56 32 c-30 18 -50 40 -43 51 6 10 2 19 -9 19 -11 0 -25 -8 -31
-19z"/>
<path d="M2910 3896 c-53 -62 -67 -109 -25 -83 13 8 39 16 58 18 38 2 83 44
102 92 22 58 -80 38 -135 -27z"/>
<path d="M2851 3722 c-22 -35 11 -85 40 -61 15 12 22 35 16 50 -13 33 -39 38
-56 11z"/>
<path d="M2554 3320 c-6 -25 -27 -40 -55 -40 -76 0 -23 -28 61 -32 47 -3 88 7
102 24 18 22 16 28 -10 28 -17 0 -32 14 -32 30 0 45 -54 36 -66 -10z"/>
<path d="M3345 5919 c-53 -21 -56 -31 -14 -47 17 -6 26 -4 20 6 -6 10 4 23 21
30 22 8 29 4 22 -14 -6 -15 2 -27 17 -27 20 0 22 9 7 36 -11 21 -21 36 -24 36
-2 -1 -24 -10 -49 -20z"/>
<path d="M4020 5850 c-14 -16 -42 -30 -63 -30 -32 0 -34 -5 -13 -28 23 -24
116 39 116 79 0 17 -15 9 -40 -21z"/>
<path d="M1776 4639 c-10 -109 80 -219 180 -219 108 0 89 76 -21 84 l-85 6 -6
105 c-8 130 -56 147 -68 24z"/>
<path d="M1900 4651 c0 -6 26 -24 59 -40 57 -30 121 -24 121 11 0 27 -35 22
-45 -7 -6 -18 -22 -15 -61 10 -54 36 -74 43 -74 26z"/>
<path d="M2128 4589 c-17 -66 10 -89 67 -59 l44 23 -40 44 c-51 54 -55 54 -71
-8z"/>
<path d="M2052 4408 c-17 -44 -15 -49 13 -43 17 3 25 -23 25 -80 0 -48 9 -85
22 -85 27 0 22 111 -8 185 -26 63 -35 67 -52 23z"/>
<path d="M1060 4042 c0 -20 15 -49 34 -65 29 -24 32 -23 20 10 -8 20 -14 49
-14 65 0 15 -9 28 -20 28 -11 0 -20 -17 -20 -38z"/>
<path d="M1395 4328 c6 -26 21 -48 35 -48 14 0 31 -22 38 -50 7 -27 26 -50 42
-50 16 0 35 -22 42 -50 10 -41 18 -46 50 -29 49 26 49 59 -1 59 -46 0 -80 51
-66 101 7 29 0 34 -34 25 -32 -8 -46 -1 -54 30 -16 61 -63 72 -52 12z"/>
<path d="M5254 4525 c-5 -8 -17 -46 -26 -85 l-16 -70 -13 80 -13 80 -3 -85
c-3 -82 -29 -113 -50 -60 -5 14 -11 5 -11 -19 -2 -31 -11 -41 -32 -33 -16 6
-30 2 -30 -8 0 -11 14 -31 30 -45 21 -17 30 -18 30 -2 0 12 10 22 22 22 12 0
17 -13 11 -29 -6 -17 -4 -34 6 -40 22 -14 45 46 28 74 -7 12 1 32 19 45 18 13
41 61 51 107 18 78 17 102 -3 68z"/>
<path d="M4985 4209 c-25 -24 -45 -55 -45 -70 0 -20 6 -21 22 -5 34 34 138 -8
138 -56 0 -21 -10 -38 -23 -38 -13 0 -19 -5 -13 -10 6 -6 25 -5 43 2 50 19 45
149 -7 162 -22 6 -35 18 -30 26 23 37 -44 28 -85 -11z"/>
<path d="M4819 4028 c-13 -39 -36 -96 -51 -125 -46 -88 -39 -139 13 -92 32 29
45 31 57 12 12 -19 22 -17 44 10 25 30 24 33 -5 22 -39 -14 -67 36 -33 57 13
9 17 5 8 -9 -8 -13 -4 -23 8 -23 25 0 90 59 90 82 0 8 7 21 15 30 8 8 15 4 15
-8 0 -13 13 -18 29 -12 35 14 32 83 -4 97 -15 6 -32 -3 -38 -19 -6 -16 -18
-25 -27 -20 -9 5 -21 -4 -28 -21 -6 -18 -21 -26 -32 -19 -11 7 -20 -2 -20 -19
0 -17 -10 -31 -22 -31 -12 0 -17 14 -10 32 22 59 36 128 26 128 -6 0 -22 -32
-35 -72z"/>
<path d="M4395 3919 c-33 -79 -33 -84 11 -68 41 16 58 65 36 105 -15 27 -23
21 -47 -37z"/>
<path d="M3454 3480 c-15 -22 -31 -38 -36 -35 -5 3 3 -5 18 -18 14 -13 18 -26
9 -30 -10 -4 22 -37 71 -74 54 -40 85 -54 77 -35 -6 18 -3 32 8 32 10 0 19
-13 19 -29 0 -45 30 -53 72 -19 31 26 32 29 4 21 -21 -7 -65 19 -120 68 -60
56 -76 79 -51 79 47 0 45 34 -4 59 -31 17 -44 13 -67 -19z"/>
<path d="M4011 3469 c-32 -17 -71 -49 -87 -72 -18 -26 -34 -33 -42 -19 -17 26
-222 5 -222 -23 0 -11 27 -16 61 -11 66 10 101 -18 57 -45 -21 -13 -20 -20 8
-30 50 -19 87 1 117 65 16 32 62 73 111 96 47 22 85 47 85 55 1 22 -23 18 -88
-16z m-131 -129 c0 -41 -55 -60 -65 -22 -6 22 -6 44 -1 49 14 14 66 -8 66 -27z"/>
<path d="M4006 3295 c-22 -25 -37 -56 -32 -70 5 -14 -1 -25 -14 -25 -12 0 -17
-9 -10 -20 23 -37 61 -20 100 45 69 116 40 162 -44 70z"/>
<path d="M4460 2959 c0 -36 8 -56 20 -49 11 7 20 34 20 61 0 27 -9 49 -20 49
-11 0 -20 -28 -20 -61z"/>
<path d="M4335 2878 c-19 -21 -36 -63 -37 -93 -2 -42 -5 -45 -12 -15 -21 82
-117 90 -121 10 -2 -47 -8 -60 -26 -60 -12 0 -16 9 -9 20 7 11 4 20 -7 20 -11
0 -31 -27 -46 -59 -16 -38 -46 -64 -79 -71 -39 -9 -51 -23 -48 -56 3 -24 6
-55 7 -69 2 -14 27 -25 57 -25 39 0 48 -6 32 -22 -16 -16 -42 -15 -94 4 -65
24 -81 22 -167 -22 -52 -26 -103 -45 -112 -43 -10 2 -29 -5 -43 -17 -17 -14
-31 -15 -38 -3 -7 11 -1 25 13 31 14 6 7 9 -15 6 -22 -2 -43 -22 -47 -44 -4
-22 -22 -49 -40 -59 -35 -21 -46 -23 -120 -28 -38 -2 -43 -9 -26 -30 18 -21
49 -23 138 -9 63 10 131 14 150 9 50 -13 64 21 15 37 -22 7 -40 22 -40 33 0
11 17 14 38 8 21 -7 44 -4 51 7 10 17 147 8 170 -11 4 -4 -9 -21 -30 -37 -69
-54 29 -12 125 53 46 32 93 57 105 57 11 0 21 14 21 30 0 17 8 30 19 30 10 0
24 18 31 40 7 22 21 35 31 29 11 -6 19 3 19 20 0 17 8 31 18 31 9 0 22 18 28
40 6 22 21 40 33 40 13 0 18 -11 11 -25 -7 -14 1 -8 19 14 17 21 31 48 31 60
1 11 18 44 40 71 76 97 35 186 -45 98z m-397 -466 c-4 -5 -48 -14 -98 -21 -64
-9 -81 -7 -60 8 28 19 177 31 158 13z"/>
<path d="M3720 2860 c0 -10 -12 -14 -26 -9 -15 6 -39 -14 -55 -45 -31 -60 -95
-126 -121 -126 -9 0 -12 -13 -6 -29 8 -20 -8 -32 -56 -41 -86 -16 -91 -97 -9
-158 52 -39 53 -39 84 -1 18 22 26 28 19 14 -7 -14 -4 -25 7 -25 37 0 83 24
83 43 0 11 -11 13 -25 5 -14 -8 6 19 44 59 38 40 83 73 100 72 26 0 25 -4 -4
-21 -50 -29 -43 -58 15 -58 28 0 50 -9 50 -20 0 -11 10 -20 22 -20 12 0 17 14
11 30 -7 17 -1 30 13 30 68 0 23 81 -51 93 -81 13 -84 23 -43 170 5 18 -5 38
-21 44 -17 6 -31 3 -31 -7z"/>
<path d="M3280 2580 c20 -13 22 -19 5 -20 -14 0 -23 -11 -20 -25 3 -15 -11
-22 -35 -18 -22 4 -34 0 -26 -8 33 -33 -27 -93 -82 -82 -44 8 -55 3 -53 -24 6
-82 34 -90 148 -48 14 6 24 -2 22 -17 -8 -55 2 -78 31 -78 34 0 38 26 13 76
-23 46 11 164 48 164 16 0 29 10 29 23 0 25 -59 76 -90 76 -11 0 -6 -8 10 -19z"/>
<path d="M3420 2379 c0 -13 -17 -16 -43 -8 -26 8 -37 6 -29 -7 7 -11 1 -24
-12 -29 -14 -4 -16 -13 -5 -19 27 -17 154 29 164 59 5 15 -9 25 -33 25 -23 0
-42 -10 -42 -21z"/>
<path d="M292 1692 c7 -19 -5 -32 -35 -38 l-47 -9 46 -2 c62 -4 132 -157 135
-294 3 -177 129 -236 129 -61 0 52 10 93 25 99 20 8 20 10 0 11 -29 2 -35 82
-6 82 15 0 101 197 101 231 0 5 -27 9 -60 9 -50 0 -60 -8 -60 -48 0 -26 -12
-76 -27 -112 l-27 -64 -33 82 c-18 46 -33 96 -33 112 0 20 -20 30 -59 30 -43
0 -57 -8 -49 -28z"/>
<path d="M738 1683 c-37 -31 -47 -62 -54 -170 -5 -73 -17 -133 -26 -133 -10 0
-18 -9 -18 -20 0 -11 10 -20 21 -20 28 0 67 -40 84 -85 15 -39 180 -50 235
-15 52 33 53 387 1 439 -53 53 -180 55 -243 4z m170 -75 c27 -70 13 -283 -20
-296 -70 -27 -88 -13 -88 67 0 43 -10 85 -22 92 -15 10 -15 20 0 35 12 12 22
41 22 65 0 72 83 102 108 37z"/>
<path d="M1071 1525 c17 -316 12 -305 151 -305 92 0 118 7 118 30 0 17 8 30
17 30 10 0 19 83 20 184 2 101 8 200 14 220 10 29 0 36 -49 36 l-61 0 12 -157
c9 -108 5 -162 -10 -171 -13 -8 -23 -32 -23 -55 0 -65 -67 -36 -89 38 -11 36
-29 65 -40 65 -12 0 -11 7 2 16 13 8 30 71 38 139 l14 125 -62 0 -63 0 11
-195z"/>
<path d="M1420 1582 c0 -92 8 -142 25 -149 20 -8 20 -10 0 -11 -40 -3 -33
-195 7 -210 54 -21 66 5 54 109 -11 91 -8 99 31 99 30 0 43 -12 43 -40 0 -22
9 -40 20 -40 11 0 20 -27 20 -60 0 -53 7 -60 60 -60 68 0 92 79 25 82 -21 1
-25 5 -10 11 40 16 32 127 -9 127 -30 0 -30 3 3 27 26 18 36 52 36 113 0 112
-38 140 -189 140 l-116 0 0 -138z m209 0 c28 -55 -19 -102 -102 -102 -4 0 -7
36 -7 80 0 101 62 113 109 22z"/>
<path d="M1960 1470 l0 -250 50 0 50 0 0 218 c0 120 5 233 12 250 10 25 -1 32
-50 32 l-62 0 0 -250z"/>
<path d="M2160 1680 c-24 -24 -40 -67 -40 -105 0 -36 -9 -96 -20 -134 -14 -51
-13 -73 5 -84 14 -9 26 -25 28 -36 1 -12 3 -32 5 -46 3 -36 117 -82 158 -64
19 8 55 13 81 10 44 -4 47 1 40 87 -4 51 -2 92 6 92 7 0 17 18 23 40 9 36 0
40 -78 40 -65 0 -88 -8 -88 -30 0 -16 14 -30 30 -30 20 0 30 -20 30 -60 0 -77
-88 -89 -107 -15 -51 190 24 377 104 258 36 -55 103 -57 103 -3 0 67 -71 120
-160 120 -53 0 -93 -13 -120 -40z"/>
<path d="M2500 1605 c0 -63 -6 -176 -13 -250 l-13 -135 53 0 c38 0 52 10 50
35 -2 19 -2 98 1 175 l3 140 37 -100 c19 -55 45 -118 57 -140 12 -22 27 -56
33 -76 7 -20 20 -31 30 -25 10 6 41 3 68 -8 53 -19 57 49 6 84 -15 10 -14 14
3 15 18 0 25 53 25 200 0 200 0 200 -50 200 -54 0 -80 -227 -28 -244 14 -5 10
-17 -10 -34 -21 -18 -32 -19 -32 -4 0 12 -16 22 -35 22 -25 1 -28 5 -10 16 49
32 -55 244 -120 244 -54 0 -55 -3 -55 -115z"/>
<path d="M2960 1680 c-32 -32 -40 -67 -40 -170 0 -109 -5 -130 -34 -130 -26 0
-28 -6 -11 -23 18 -18 32 -16 59 5 33 25 34 25 9 -7 -24 -30 -23 -36 5 -47 17
-7 32 -29 32 -48 0 -53 203 -63 253 -14 29 30 33 234 4 234 -23 1 -23 3 1 18
40 26 11 153 -43 191 -63 45 -186 40 -235 -9z m180 -91 c54 -140 15 -289 -74
-289 -47 0 -60 70 -46 240 8 104 87 136 120 49z"/>
<path d="M3300 1582 c0 -92 8 -142 25 -149 20 -8 20 -10 0 -11 -56 -4 -31
-202 26 -202 49 0 50 3 37 100 -12 93 -10 100 29 100 30 0 43 -13 43 -40 0
-22 9 -40 20 -40 11 0 20 -27 20 -60 0 -53 7 -60 60 -60 57 0 80 34 46 68 -8
8 -12 45 -9 83 5 52 -2 69 -25 69 -26 0 -25 7 8 40 109 109 22 240 -160 240
l-120 0 0 -138z m221 -5 c12 -44 6 -57 -35 -75 -66 -30 -86 -13 -86 71 0 91
97 94 121 4z"/>
<path d="M3753 1580 c-20 -77 -44 -145 -55 -151 -10 -6 -18 -36 -18 -66 0 -30
-10 -65 -23 -78 -25 -25 -9 -85 23 -85 12 0 27 15 34 33 46 119 172 141 182
32 4 -41 15 -61 28 -52 12 7 51 12 87 11 74 -3 88 33 90 233 l2 113 26 -86
c15 -47 41 -106 57 -131 17 -25 33 -67 37 -92 6 -37 21 -47 79 -50 74 -5 91
52 30 94 -15 10 -15 14 -1 15 13 0 22 74 23 200 l2 200 -55 0 c-54 0 -54 -1
-45 -115 5 -63 17 -118 27 -122 10 -4 9 -19 -4 -34 -30 -36 -97 4 -85 50 17
67 -68 221 -123 221 -50 0 -51 -3 -53 -155 -2 -142 -31 -319 -36 -215 -14 329
-165 480 -229 230z m125 -155 c1 -33 -9 -45 -40 -45 -38 0 -41 8 -28 75 25
133 62 117 68 -30z"/>
<path d="M4496 1699 c-97 -56 -104 -416 -9 -421 34 -2 36 -5 8 -12 -79 -20
-27 -46 95 -46 117 0 130 4 130 40 0 22 9 40 20 40 11 0 20 32 20 70 0 57 -8
70 -40 70 -32 0 -40 -13 -40 -70 0 -67 -3 -70 -70 -70 -64 0 -70 5 -70 58 0
32 -11 63 -25 69 -20 8 -20 10 0 11 16 1 25 34 25 90 0 116 83 160 119 64 23
-59 101 -50 101 10 0 94 -165 155 -264 97z"/>
<path d="M4820 1605 c0 -63 6 -176 13 -250 l13 -135 117 0 c104 0 117 5 117
40 0 31 -13 40 -59 40 -70 0 -81 13 -67 85 9 45 21 55 68 55 45 0 58 9 58 40
0 33 -13 40 -81 40 -77 0 -81 3 -75 55 5 50 14 55 86 55 68 0 81 7 86 45 7 43
1 45 -135 45 l-141 0 0 -115z"/>
<path d="M5344 1465 c6 -240 8 -255 46 -255 30 0 41 15 46 63 4 35 19 68 34
74 17 7 24 1 18 -15 -6 -15 4 -32 21 -39 17 -6 31 -29 31 -51 0 -75 223 -49
242 28 29 124 36 211 15 198 -33 -20 -197 78 -197 118 0 50 60 68 90 27 31
-41 110 -44 110 -3 0 97 -197 151 -267 73 -62 -69 -25 -223 54 -223 18 0 33
-9 33 -20 0 -11 18 -20 40 -20 31 0 40 -13 40 -60 0 -53 -7 -60 -60 -60 -48 0
-60 9 -60 43 0 37 -8 41 -70 31 l-69 -11 12 178 13 179 -64 0 -63 0 5 -255z"/>
<path d="M806 1120 c-86 -35 -115 -112 -123 -334 -7 -186 -11 -206 -45 -206
-21 0 -38 -13 -38 -30 0 -42 79 -38 112 5 25 33 27 33 27 0 1 -19 -8 -35 -19
-35 -11 0 -20 -18 -20 -40 0 -27 13 -40 41 -40 32 0 40 -11 36 -45 -10 -79 17
-95 164 -95 77 0 139 8 139 18 0 10 16 16 35 15 27 -2 34 10 29 52 -4 30 3 55
15 55 13 0 21 57 21 150 0 120 -6 150 -30 150 -16 0 -30 9 -30 20 0 11 14 20
30 20 69 0 19 255 -63 319 -56 44 -198 54 -281 21z m214 -375 c11 -273 -1
-305 -120 -305 l-60 0 0 150 c0 120 -6 150 -30 150 -16 0 -30 9 -30 20 0 11
14 20 30 20 22 0 30 23 30 86 0 103 29 138 110 130 l60 -6 10 -245z"/>
<path d="M1240 960 c0 -107 -8 -180 -20 -180 -11 0 -20 -9 -20 -20 0 -11 14
-20 30 -20 24 0 30 -31 30 -159 0 -87 9 -164 20 -171 11 -7 15 -34 8 -61 l-12
-49 182 0 c181 0 182 0 182 50 0 37 11 50 40 50 34 0 40 13 40 90 0 67 -8 90
-30 90 -16 0 -30 8 -30 18 0 10 14 23 30 29 24 10 30 58 30 264 l0 251 -72 -6
-73 -6 4 -263 c2 -199 -3 -265 -23 -272 -16 -5 -23 -35 -19 -82 7 -78 -56
-106 -113 -49 -37 37 -32 223 5 209 17 -6 35 -3 42 8 6 10 -7 19 -30 19 -39 0
-41 11 -41 220 l0 220 -80 0 -80 0 0 -180z"/>
<path d="M1760 910 c0 -191 5 -230 30 -230 17 0 30 -9 30 -20 0 -11 -13 -20
-29 -20 -21 0 -30 -39 -35 -170 l-6 -170 85 0 c85 0 127 72 65 110 -11 7 -20
62 -20 123 0 136 103 165 116 32 4 -40 17 -65 35 -65 21 0 29 -26 29 -95 l0
-96 80 -2 c78 -2 80 0 80 68 0 53 -7 67 -29 58 -17 -6 -35 -3 -42 8 -6 10 3
19 20 19 24 0 31 23 31 100 0 93 -3 100 -50 100 -60 0 -67 31 -10 46 99 26
108 305 12 387 -48 41 -75 47 -223 47 l-169 0 0 -230z m261 90 c27 0 41 -20
50 -70 8 -38 21 -70 31 -70 10 0 18 -9 18 -20 0 -11 -10 -20 -21 -20 -12 0
-35 -13 -52 -30 -79 -79 -147 -39 -147 87 0 124 11 151 56 134 15 -6 44 -11
65 -11z"/>
<path d="M2539 1135 c-17 -160 1 -445 28 -442 42 3 43 -48 2 -57 -24 -4 -34
-37 -39 -126 -12 -180 1 -210 84 -210 l71 0 -14 89 c-26 173 0 231 101 231 49
0 88 9 88 20 0 11 27 20 60 20 33 0 61 11 63 25 1 14 4 45 7 70 3 32 -6 45
-33 45 -51 0 -47 53 6 66 29 8 38 22 30 44 -7 18 -13 51 -13 73 0 98 -104 157
-278 157 -89 0 -162 -2 -163 -5z m297 -240 c6 -90 4 -95 -45 -95 -28 0 -51 -9
-51 -20 0 -11 -13 -20 -30 -20 -23 0 -30 27 -30 121 l0 121 75 -6 c74 -6 75
-7 81 -101z"/>
<path d="M3242 1107 c-74 -51 -102 -148 -102 -346 0 -168 -3 -181 -40 -181
-22 0 -40 -13 -40 -30 0 -19 19 -30 50 -30 31 0 50 11 50 30 0 17 9 30 20 30
11 0 20 -13 20 -30 0 -16 -9 -30 -20 -30 -11 0 -20 -18 -20 -40 0 -22 13 -40
30 -40 18 0 30 -18 30 -46 0 -73 38 -94 173 -94 164 0 227 24 213 81 -7 25 -1
50 15 59 18 12 25 60 24 158 -3 141 -3 142 50 142 42 0 48 5 29 24 -20 20 -33
20 -64 0 -48 -29 -80 -31 -80 -4 0 11 14 20 30 20 69 0 19 255 -63 319 -66 52
-236 56 -305 8z m226 -139 c27 -71 10 -488 -20 -488 -15 0 -28 -9 -28 -20 0
-11 -27 -20 -60 -20 l-60 0 0 150 c0 120 -6 150 -30 150 -16 0 -30 9 -30 20 0
11 14 20 30 20 22 0 30 22 30 78 0 43 5 93 12 110 17 44 139 43 156 0z"/>
<path d="M3706 1095 c6 -25 22 -124 35 -220 14 -96 34 -175 44 -175 10 0 16
-60 12 -133 -5 -94 0 -136 18 -142 14 -5 25 -35 25 -67 0 -51 7 -58 60 -58 53
0 60 7 60 60 0 50 8 60 49 60 l49 0 -12 208 c-13 227 8 344 36 202 9 -44 16
-118 17 -165 1 -65 9 -85 34 -85 28 0 31 -20 22 -140 l-10 -140 55 0 c40 0 59
13 70 45 8 25 17 52 20 60 3 8 6 24 8 35 1 11 16 20 32 20 20 0 30 20 30 60 0
51 -8 60 -50 60 -27 0 -50 9 -50 20 0 11 27 20 60 20 47 0 60 9 60 40 0 32 13
40 67 40 78 0 92 -43 93 -278 l0 -127 93 12 c51 7 131 13 178 13 79 0 85 4 93
60 7 47 2 60 -26 60 -19 0 -39 11 -45 25 -8 20 -10 20 -11 0 -3 -36 -122 -33
-122 3 0 16 -11 33 -25 39 -20 8 -20 10 0 11 16 1 25 32 25 82 l0 80 90 0 c90
0 90 0 90 70 l0 70 -100 0 -100 0 0 90 0 90 110 0 110 0 0 70 0 70 -191 0
-190 0 5 -205 c4 -140 13 -205 29 -205 13 0 31 -8 40 -17 15 -15 -173 3 -190
19 -4 3 5 96 21 207 l29 201 -75 0 -74 0 -13 -145 c-21 -236 -33 -295 -61
-295 -34 0 -50 45 -50 147 0 45 -6 130 -13 188 l-13 105 -94 0 -94 0 -12 -201
c-20 -322 -63 -327 -84 -9 l-15 210 -80 0 c-72 0 -78 -4 -69 -45z"/>
<path d="M4964 905 c4 -162 13 -235 29 -235 13 0 30 -7 39 -15 8 -8 -5 -15
-29 -15 -41 0 -43 -9 -43 -170 l0 -170 83 0 82 0 -15 105 c-29 204 -26 224 35
231 51 6 55 1 55 -65 0 -49 9 -71 29 -71 20 0 31 -28 35 -95 l6 -95 80 0 c76
0 80 3 80 60 0 43 -10 60 -34 60 -18 0 -40 7 -48 15 -8 8 0 15 19 15 26 0 33
20 33 100 0 93 -3 100 -50 100 -27 0 -50 9 -50 20 0 11 18 20 40 20 58 0 85
86 76 238 -11 179 -43 202 -279 202 l-178 0 5 -235z m291 84 c14 -4 25 -34 25
-66 0 -36 13 -64 33 -72 27 -10 18 -21 -40 -52 -132 -71 -153 -58 -153 91 l0
131 55 -12 c30 -7 66 -16 80 -20z"/>
<path d="M2985 835 c5 -14 29 -25 55 -25 26 0 50 11 55 25 5 16 -13 25 -55 25
-42 0 -60 -9 -55 -25z"/>
</g>
</svg>
