<svg width="556.923681640625px" height="345.2099609375px" xmlns="http://www.w3.org/2000/svg" viewBox="-28.46184082031249 -97.60498046875 556.923681640625 345.2099609375" style="background: rgba(0, 0, 0, 0);" preserveAspectRatio="xMidYMid"><defs><filter id="editing-extrusion" x="-100%" y="-100%" width="300%" height="300%"><feFlood result="color1" flood-color="#191e1b"></feFlood><feConvolveMatrix order="8,8" divisor="1" kernelMatrix="1 0 0 0 0 0 0 0 0 1 0 0 0 0 0 0 0 0 1 0 0 0 0 0 0 0 0 1 0 0 0 0 0 0 0 0 1 0 0 0 0 0 0 0 0 1 0 0 0 0 0 0 0 0 1 0 0 0 0 0 0 0 0 1" in="SourceAlpha" result="extrude"></feConvolveMatrix><feComposite in="color1" in2="extrude" result="comp-extrude" operator="in"></feComposite><feOffset dx="4" dy="4" in="comp-extrude" result="offset-extrude"></feOffset><feMerge><feMergeNode in="offset-extrude"></feMergeNode><feMergeNode in="SourceGraphic"></feMergeNode></feMerge></filter></defs><g filter="url(#editing-extrusion)"><g transform="translate(59.97643303871155, 143.0199966430664)"><path d="M72.53-39.79L72.53-9.88L72.53-9.88Q72.53-4.04 71.80 0.09L71.80 0.09L71.80 0.09Q71.07 4.21 69.78 6.79L69.78 6.79L69.78 6.79Q68.49 9.37 66.64 10.57L66.64 10.57L66.64 10.57Q64.80 11.77 62.65 11.77L62.65 11.77L62.65 11.77Q61.02 11.77 59.04 10.66L59.04 10.66L59.04 10.66Q57.06 9.54 55.30 7.91L55.30 7.91L55.30 7.91Q53.54 6.27 52.38 4.55L52.38 4.55L52.38 4.55Q51.22 2.84 51.22 1.55L51.22 1.55L51.22 1.55Q51.22 0.69 51.43 0.47L51.43 0.47L51.43 0.47Q51.65 0.26 52.04 0.30L52.04 0.30L52.04 0.30Q52.42 0.34 52.98 0.52L52.98 0.52L52.98 0.52Q53.54 0.69 54.23 0.69L54.23 0.69L54.23 0.69Q56.63 0.69 57.71-2.36L57.71-2.36L57.71-2.36Q58.78-5.41 58.78-12.12L58.78-12.12L58.78-39.79L49.67-39.79L49.67-39.79Q48.30-39.79 47.14-40.65L47.14-40.65L47.14-40.65Q45.98-41.51 45.12-42.80L45.12-42.80L45.12-42.80Q44.26-44.09 43.79-45.63L43.79-45.63L43.79-45.63Q43.31-47.18 43.31-48.55L43.31-48.55L43.31-48.55Q43.31-50.02 43.96-51.05L43.96-51.05L43.96-51.05Q44.60-52.08 45.98-52.08L45.98-52.08L58.78-52.08L58.78-109.31L58.78-109.31Q49.50-108.71 41.85-106.56L41.85-106.56L41.85-106.56Q34.20-104.41 28.70-100.03L28.70-100.03L28.70-100.03Q23.20-95.65 20.15-88.64L20.15-88.64L20.15-88.64Q17.10-81.64 17.10-71.24L17.10-71.24L17.10-71.24Q17.10-66.69 18.00-63.04L18.00-63.04L18.00-63.04Q18.91-59.38 20.37-56.46L20.37-56.46L20.37-56.46Q21.83-53.54 23.59-51.30L23.59-51.30L23.59-51.30Q25.35-49.07 27.07-47.35L27.07-47.35L27.07-47.35Q28.53-47.78 29.13-47.01L29.13-47.01L29.13-47.01Q29.73-46.23 29.73-44.86L29.73-44.86L29.73-44.86Q29.73-43.14 29.00-41.29L29.00-41.29L29.00-41.29Q28.27-39.45 27.07-37.94L27.07-37.94L27.07-37.94Q25.87-36.44 24.36-35.45L24.36-35.45L24.36-35.45Q22.86-34.46 21.31-34.46L21.31-34.46L21.31-34.46Q20.63-34.46 19.98-34.63L19.98-34.63L19.98-34.63Q19.34-34.80 18.65-35.41L18.65-35.41L18.65-35.41Q16.76-36.78 14.09-39.92L14.09-39.92L14.09-39.92Q11.43-43.05 9.02-47.70L9.02-47.70L9.02-47.70Q6.62-52.34 4.90-58.31L4.90-58.31L4.90-58.31Q3.18-64.28 3.18-71.24L3.18-71.24L3.18-71.24Q3.18-96.59 19.38-109.91L19.38-109.91L19.38-109.91Q35.58-123.23 67.20-123.23L67.20-123.23L67.20-123.23Q69.61-123.23 73.26-123.19L73.26-123.19L73.26-123.19Q76.91-123.15 81.04-123.15L81.04-123.15L81.04-123.15Q85.16-123.15 89.42-123.06L89.42-123.06L89.42-123.06Q93.67-122.98 97.32-122.98L97.32-122.98L97.32-122.98Q100.98-122.98 103.60-122.93L103.60-122.93L103.60-122.93Q106.22-122.89 107.16-122.89L107.16-122.89L107.16-122.89Q108.45-122.89 109.31-123.11L109.31-123.11L109.31-123.11Q110.17-123.32 110.73-123.58L110.73-123.58L110.73-123.58Q111.29-123.84 111.59-124.05L111.59-124.05L111.59-124.05Q111.89-124.27 112.15-124.27L112.15-124.27L112.15-124.27Q112.58-124.27 113.01-123.71L113.01-123.71L113.01-123.71Q113.44-123.15 113.78-122.33L113.78-122.33L113.78-122.33Q114.13-121.52 114.34-120.48L114.34-120.48L114.34-120.48Q114.55-119.45 114.55-118.42L114.55-118.42L114.55-118.42Q114.55-116.88 114.08-115.20L114.08-115.20L114.08-115.20Q113.61-113.52 112.58-112.19L112.58-112.19L112.58-112.19Q111.55-110.86 110.04-110L110.04-110L110.04-110Q108.54-109.14 106.48-109.14L106.48-109.14L106.48-109.14Q105.70-109.14 103.64-109.18L103.64-109.18L103.64-109.18Q101.58-109.23 98.70-109.27L98.70-109.27L98.70-109.27Q95.82-109.31 92.38-109.36L92.38-109.36L92.38-109.36Q88.95-109.40 85.46-109.44L85.46-109.44L85.46-109.44Q81.98-109.48 78.63-109.53L78.63-109.53L78.63-109.53Q75.28-109.57 72.53-109.66L72.53-109.66L72.53-52.08L94.53-52.08L94.53-52.08Q95.91-53.11 96.59-52.59L96.59-52.59L96.59-52.59Q97.28-52.08 97.41-50.70L97.41-50.70L97.41-50.70Q97.54-49.33 97.24-47.44L97.24-47.44L97.24-47.44Q96.94-45.55 96.29-43.87L96.29-43.87L96.29-43.87Q95.65-42.20 94.79-40.99L94.79-40.99L94.79-40.99Q93.93-39.79 92.90-39.79L92.90-39.79L72.53-39.79ZM147.55-51.22L147.55-51.22L147.55-51.22Q147.55-46.32 145.88-41.16L145.88-41.16L145.88-41.16Q144.20-36.01 140.89-31.41L140.89-31.41L140.89-31.41Q137.59-26.81 132.73-23.16L132.73-23.16L132.73-23.16Q127.88-19.51 121.52-17.62L121.52-17.62L121.52-17.62Q122.38-15.38 123.79-13.36L123.79-13.36L123.79-13.36Q125.21-11.34 127.19-9.88L127.19-9.88L127.19-9.88Q129.16-8.42 131.79-7.56L131.79-7.56L131.79-7.56Q134.41-6.70 137.84-6.70L137.84-6.70L137.84-6.70Q143-6.70 146.70-8.64L146.70-8.64L146.70-8.64Q150.39-10.57 152.93-13.75L152.93-13.75L152.93-13.75Q155.46-16.93 157.01-20.88L157.01-20.88L157.01-20.88Q158.55-24.84 159.33-28.88L159.33-28.88L159.33-28.88Q159.93-31.80 161.78-32.79L161.78-32.79L161.78-32.79Q163.63-33.77 165.56-33.26L165.56-33.26L165.56-33.26Q167.49-32.74 168.91-31.07L168.91-31.07L168.91-31.07Q170.33-29.39 170.07-27.07L170.07-27.07L170.07-27.07Q169.73-24.41 168.91-20.97L168.91-20.97L168.91-20.97Q168.09-17.53 166.46-14.01L166.46-14.01L166.46-14.01Q164.83-10.48 162.29-7.09L162.29-7.09L162.29-7.09Q159.76-3.70 156.06-1.03L156.06-1.03L156.06-1.03Q152.37 1.63 147.38 3.27L147.38 3.27L147.38 3.27Q142.40 4.90 135.95 4.90L135.95 4.90L135.95 4.90Q129.94 4.90 124.31 2.54L124.31 2.54L124.31 2.54Q118.68 0.17 114.34-4.25L114.34-4.25L114.34-4.25Q110-8.68 107.38-15.17L107.38-15.17L107.38-15.17Q104.76-21.66 104.76-29.91L104.76-29.91L104.76-29.91Q104.76-38.24 107.08-45.42L107.08-45.42L107.08-45.42Q109.40-52.59 113.18-57.84L113.18-57.84L113.18-57.84Q116.96-63.08 121.77-66.04L121.77-66.04L121.77-66.04Q126.59-69.01 131.66-69.01L131.66-69.01L131.66-69.01Q135.35-69.01 138.32-67.72L138.32-67.72L138.32-67.72Q141.28-66.43 143.34-64.07L143.34-64.07L143.34-64.07Q145.41-61.70 146.48-58.44L146.48-58.44L146.48-58.44Q147.55-55.17 147.55-51.22ZM119.20-30.42L119.20-30.42L119.20-30.42Q119.20-29.65 119.28-28.88L119.28-28.88L119.28-28.88Q119.37-28.10 119.37-27.24L119.37-27.24L119.37-27.24Q122.63-28.79 125.30-31.20L125.30-31.20L125.30-31.20Q127.96-33.60 129.85-36.70L129.85-36.70L129.85-36.70Q131.74-39.79 132.77-43.44L132.77-43.44L132.77-43.44Q133.80-47.09 133.80-51.05L133.80-51.05L133.80-51.05Q133.80-53.97 132.82-55.60L132.82-55.60L132.82-55.60Q131.83-57.23 130.11-57.23L130.11-57.23L130.11-57.23Q127.96-57.23 126.29-55.77L126.29-55.77L126.29-55.77Q124.61-54.31 123.36-51.95L123.36-51.95L123.36-51.95Q122.12-49.59 121.30-46.62L121.30-46.62L121.30-46.62Q120.48-43.66 119.97-40.65L119.97-40.65L119.97-40.65Q119.45-37.64 119.28-34.93L119.28-34.93L119.28-34.93Q119.11-32.23 119.20-30.42ZM207.71 4.90L207.71 4.90L207.71 4.90Q204.70 4.90 202.25 3.95L202.25 3.95L202.25 3.95Q199.80 3.01 197.96 1.33L197.96 1.33L197.96 1.33Q196.11-0.34 194.91-2.62L194.91-2.62L194.91-2.62Q193.70-4.90 193.27-7.56L193.27-7.56L193.27-7.56Q190.09-1.98 185.80 1.55L185.80 1.55L185.80 1.55Q181.50 5.07 175.66 5.07L175.66 5.07L175.66 5.07Q171.27 5.07 167.79 3.27L167.79 3.27L167.79 3.27Q164.31 1.46 161.91-1.85L161.91-1.85L161.91-1.85Q159.50-5.16 158.25-9.84L158.25-9.84L158.25-9.84Q157.01-14.52 157.01-20.28L157.01-20.28L157.01-20.28Q157.01-27.24 158.00-34.29L158.00-34.29L158.00-34.29Q158.98-41.34 160.19-47.01L160.19-47.01L160.19-47.01Q161.56-53.63 163.37-59.81L163.37-59.81L163.37-59.81Q163.80-60.93 164.01-62.09L164.01-62.09L164.01-62.09Q164.23-63.25 165-64.20L165-64.20L165-64.20Q165.77-65.14 167.45-65.74L167.45-65.74L167.45-65.74Q169.13-66.34 172.65-66.34L172.65-66.34L172.65-66.34Q175.91-66.34 176.86-65.18L176.86-65.18L176.86-65.18Q177.80-64.02 177.59-62.48L177.59-62.48L177.59-62.48Q177.38-60.93 176.56-59.30L176.56-59.30L176.56-59.30Q175.74-57.66 175.48-56.63L175.48-56.63L175.48-56.63Q174.28-51.73 173.34-47.70L173.34-47.70L173.34-47.70Q172.39-43.66 171.75-39.57L171.75-39.57L171.75-39.57Q171.10-35.49 170.76-31.07L170.76-31.07L170.76-31.07Q170.41-26.64 170.41-21.14L170.41-21.14L170.41-21.14Q170.41-13.92 172.52-10.23L172.52-10.23L172.52-10.23Q174.63-6.53 178.49-6.53L178.49-6.53L178.49-6.53Q181.16-6.53 183.43-8.51L183.43-8.51L183.43-8.51Q185.71-10.48 187.56-13.79L187.56-13.79L187.56-13.79Q189.41-17.10 190.78-21.36L190.78-21.36L190.78-21.36Q192.16-25.61 192.93-30.25L192.93-30.25L192.93-58.61L192.93-58.61Q192.93-60.50 192.63-61.62L192.63-61.62L192.63-61.62Q192.33-62.73 192.03-63.38L192.03-63.38L192.03-63.38Q191.73-64.02 191.43-64.41L191.43-64.41L191.43-64.41Q191.13-64.80 191.13-65.31L191.13-65.31L191.13-65.31Q191.13-65.74 191.64-66.09L191.64-66.09L191.64-66.09Q192.16-66.43 193.02-66.69L193.02-66.69L193.02-66.69Q193.88-66.95 194.86-67.07L194.86-67.07L194.86-67.07Q195.85-67.20 196.80-67.20L196.80-67.20L196.80-67.20Q201.18-67.20 203.71-64.93L203.71-64.93L203.71-64.93Q206.25-62.65 206.25-59.47L206.25-59.47L206.25-14.78L206.25-14.78Q206.25-14.18 206.34-12.85L206.34-12.85L206.34-12.85Q206.42-11.52 206.85-10.14L206.85-10.14L206.85-10.14Q207.28-8.77 208.23-7.73L208.23-7.73L208.23-7.73Q209.17-6.70 210.89-6.70L210.89-6.70L210.89-6.70Q213.55-6.70 215.49-8.59L215.49-8.59L215.49-8.59Q217.42-10.48 218.84-13.32L218.84-13.32L218.84-13.32Q220.26-16.16 221.16-19.46L221.16-19.46L221.16-19.46Q222.06-22.77 222.66-25.70L222.66-25.70L222.66-25.70Q223.18-28.45 224.38-29.69L224.38-29.69L224.38-29.69Q225.59-30.94 226.88-30.94L226.88-30.94L226.88-30.94Q227.91-30.94 229.02-30.29L229.02-30.29L229.02-30.29Q230.14-29.65 231.04-28.62L231.04-28.62L231.04-28.62Q231.95-27.59 232.50-26.30L232.50-26.30L232.50-26.30Q233.06-25.01 233.06-23.72L233.06-23.72L233.06-23.72Q233.06-23.55 233.06-23.29L233.06-23.29L233.06-23.29Q233.06-23.03 232.89-22.52L232.89-22.52L232.89-22.52Q231.69-18.13 229.75-13.32L229.75-13.32L229.75-13.32Q227.82-8.51 224.81-4.47L224.81-4.47L224.81-4.47Q221.80-0.43 217.59 2.23L217.59 2.23L217.59 2.23Q213.38 4.90 207.71 4.90ZM232.63-84.65L232.63-84.65L232.63-84.65Q230.48-84.65 228.55-85.51L228.55-85.51L228.55-85.51Q226.62-86.37 225.20-87.83L225.20-87.83L225.20-87.83Q223.78-89.29 222.92-91.22L222.92-91.22L222.92-91.22Q222.06-93.16 222.06-95.39L222.06-95.39L222.06-95.39Q222.06-97.71 222.92-99.69L222.92-99.69L222.92-99.69Q223.78-101.66 225.20-103.08L225.20-103.08L225.20-103.08Q226.62-104.50 228.55-105.32L228.55-105.32L228.55-105.32Q230.48-106.13 232.63-106.13L232.63-106.13L232.63-106.13Q234.95-106.13 236.93-105.32L236.93-105.32L236.93-105.32Q238.91-104.50 240.32-103.08L240.32-103.08L240.32-103.08Q241.74-101.66 242.56-99.69L242.56-99.69L242.56-99.69Q243.38-97.71 243.38-95.39L243.38-95.39L243.38-95.39Q243.38-93.16 242.56-91.22L242.56-91.22L242.56-91.22Q241.74-89.29 240.32-87.83L240.32-87.83L240.32-87.83Q238.91-86.37 236.93-85.51L236.93-85.51L236.93-85.51Q234.95-84.65 232.63-84.65ZM236.67-59.47L236.67-14.78L236.67-14.78Q236.67-14.18 236.76-12.85L236.76-12.85L236.76-12.85Q236.84-11.52 237.27-10.14L237.27-10.14L237.27-10.14Q237.70-8.77 238.65-7.73L238.65-7.73L238.65-7.73Q239.59-6.70 241.31-6.70L241.31-6.70L241.31-6.70Q243.89-6.70 245.82-8.59L245.82-8.59L245.82-8.59Q247.76-10.48 249.18-13.32L249.18-13.32L249.18-13.32Q250.59-16.16 251.54-19.46L251.54-19.46L251.54-19.46Q252.48-22.77 253.09-25.70L253.09-25.70L253.09-25.70Q253.60-28.36 254.68-29.56L254.68-29.56L254.68-29.56Q255.75-30.77 257.00-30.89L257.00-30.89L257.00-30.89Q258.24-31.02 259.49-30.25L259.49-30.25L259.49-30.25Q260.73-29.48 261.72-28.23L261.72-28.23L261.72-28.23Q262.71-26.98 263.18-25.44L263.18-25.44L263.18-25.44Q263.66-23.89 263.31-22.52L263.31-22.52L263.31-22.52Q262.11-18.13 260.18-13.32L260.18-13.32L260.18-13.32Q258.24-8.51 255.23-4.47L255.23-4.47L255.23-4.47Q252.23-0.43 248.02 2.23L248.02 2.23L248.02 2.23Q243.80 4.90 238.13 4.90L238.13 4.90L238.13 4.90Q234.61 4.90 231.86 3.57L231.86 3.57L231.86 3.57Q229.11 2.23 227.22 0L227.22 0L227.22 0Q225.33-2.23 224.34-5.24L224.34-5.24L224.34-5.24Q223.35-8.25 223.35-11.60L223.35-11.60L223.35-58.61L223.35-58.61Q223.35-61.10 222.96-62.22L222.96-62.22L222.96-62.22Q222.58-63.34 222.58-64.28L222.58-64.28L222.58-64.28Q222.58-65.57 223.95-66.39L223.95-66.39L223.95-66.39Q225.33-67.20 227.22-67.20L227.22-67.20L227.22-67.20Q231.60-67.20 234.14-64.93L234.14-64.93L234.14-64.93Q236.67-62.65 236.67-59.47L236.67-59.47ZM267.09-102.27L267.09-52.08L267.09-52.08Q268.04-53.88 268.94-56.93L268.94-56.93L268.94-56.93Q269.84-59.98 270.66-63.68L270.66-63.68L270.66-63.68Q271.48-67.38 272.16-71.41L272.16-71.41L272.16-71.41Q272.85-75.45 273.37-79.32L273.37-79.32L273.37-79.32Q273.88-83.19 274.18-86.58L274.18-86.58L274.18-86.58Q274.48-89.98 274.48-92.38L274.48-92.38L274.48-92.38Q274.48-101.15 273.20-105.23L273.20-105.23L273.20-105.23Q271.91-109.31 269.76-109.31L269.76-109.31L269.76-109.31Q269.07-109.31 268.55-108.63L268.55-108.63L268.55-108.63Q268.04-107.94 267.70-106.86L267.70-106.86L267.70-106.86Q267.35-105.79 267.22-104.54L267.22-104.54L267.22-104.54Q267.09-103.30 267.09-102.27L267.09-102.27ZM292.10-25.52L292.10-25.52L292.10-25.52Q292.62-28.10 293.69-29.26L293.69-29.26L293.69-29.26Q294.77-30.42 296.01-30.55L296.01-30.55L296.01-30.55Q297.26-30.68 298.55-29.95L298.55-29.95L298.55-29.95Q299.84-29.22 300.78-28.02L300.78-28.02L300.78-28.02Q301.73-26.81 302.20-25.31L302.20-25.31L302.20-25.31Q302.67-23.80 302.33-22.34L302.33-22.34L302.33-22.34Q301.13-18.82 298.89-14.09L298.89-14.09L298.89-14.09Q296.66-9.37 293.22-5.16L293.22-5.16L293.22-5.16Q289.78-0.95 285.14 1.98L285.14 1.98L285.14 1.98Q280.50 4.90 274.48 4.90L274.48 4.90L274.48 4.90Q269.41 4.90 265.55 3.22L265.55 3.22L265.55 3.22Q261.68 1.55 259.06-1.50L259.06-1.50L259.06-1.50Q256.44-4.55 255.11-8.81L255.11-8.81L255.11-8.81Q253.77-13.06 253.77-18.30L253.77-18.30L253.77-98.40L253.77-98.40Q253.77-103.30 255.02-107.46L255.02-107.46L255.02-107.46Q256.27-111.63 258.46-114.60L258.46-114.60L258.46-114.60Q260.65-117.56 263.57-119.24L263.57-119.24L263.57-119.24Q266.49-120.91 269.76-120.91L269.76-120.91L269.76-120.91Q273.63-120.91 276.29-119.50L276.29-119.50L276.29-119.50Q278.95-118.08 280.67-115.76L280.67-115.76L280.67-115.76Q282.39-113.44 283.38-110.43L283.38-110.43L283.38-110.43Q284.37-107.42 284.80-104.29L284.80-104.29L284.80-104.29Q285.23-101.15 285.31-98.10L285.31-98.10L285.31-98.10Q285.40-95.05 285.40-92.55L285.40-92.55L285.40-92.55Q285.40-86.11 284.20-79.02L284.20-79.02L284.20-79.02Q282.99-71.93 281.14-65.05L281.14-65.05L281.14-65.05Q279.30-58.18 277.11-51.86L277.11-51.86L277.11-51.86Q274.91-45.55 272.89-40.65L272.89-40.65L272.89-40.65Q270.88-35.75 269.29-32.66L269.29-32.66L269.29-32.66Q267.70-29.56 267.09-29.05L267.09-29.05L267.09-18.82L267.09-18.82Q267.09-13.49 269.33-10.10L269.33-10.10L269.33-10.10Q271.56-6.70 276.46-6.70L276.46-6.70L276.46-6.70Q279.47-6.70 282.09-8.55L282.09-8.55L282.09-8.55Q284.71-10.40 286.73-13.19L286.73-13.19L286.73-13.19Q288.75-15.98 290.13-19.29L290.13-19.29L290.13-19.29Q291.50-22.60 292.10-25.52ZM305.85-102.27L305.85-52.08L305.85-52.08Q306.80-53.88 307.70-56.93L307.70-56.93L307.70-56.93Q308.60-59.98 309.42-63.68L309.42-63.68L309.42-63.68Q310.23-67.38 310.92-71.41L310.92-71.41L310.92-71.41Q311.61-75.45 312.13-79.32L312.13-79.32L312.13-79.32Q312.64-83.19 312.94-86.58L312.94-86.58L312.94-86.58Q313.24-89.98 313.24-92.38L313.24-92.38L313.24-92.38Q313.24-101.15 311.95-105.23L311.95-105.23L311.95-105.23Q310.66-109.31 308.52-109.31L308.52-109.31L308.52-109.31Q307.83-109.31 307.31-108.63L307.31-108.63L307.31-108.63Q306.80-107.94 306.45-106.86L306.45-106.86L306.45-106.86Q306.11-105.79 305.98-104.54L305.98-104.54L305.98-104.54Q305.85-103.30 305.85-102.27L305.85-102.27ZM330.86-25.52L330.86-25.52L330.86-25.52Q331.38-28.10 332.45-29.26L332.45-29.26L332.45-29.26Q333.52-30.42 334.77-30.55L334.77-30.55L334.77-30.55Q336.02-30.68 337.30-29.95L337.30-29.95L337.30-29.95Q338.59-29.22 339.54-28.02L339.54-28.02L339.54-28.02Q340.48-26.81 340.96-25.31L340.96-25.31L340.96-25.31Q341.43-23.80 341.09-22.34L341.09-22.34L341.09-22.34Q339.88-18.82 337.65-14.09L337.65-14.09L337.65-14.09Q335.41-9.37 331.98-5.16L331.98-5.16L331.98-5.16Q328.54-0.95 323.90 1.98L323.90 1.98L323.90 1.98Q319.26 4.90 313.24 4.90L313.24 4.90L313.24 4.90Q308.17 4.90 304.30 3.22L304.30 3.22L304.30 3.22Q300.44 1.55 297.82-1.50L297.82-1.50L297.82-1.50Q295.20-4.55 293.86-8.81L293.86-8.81L293.86-8.81Q292.53-13.06 292.53-18.30L292.53-18.30L292.53-98.40L292.53-98.40Q292.53-103.30 293.78-107.46L293.78-107.46L293.78-107.46Q295.02-111.63 297.21-114.60L297.21-114.60L297.21-114.60Q299.41-117.56 302.33-119.24L302.33-119.24L302.33-119.24Q305.25-120.91 308.52-120.91L308.52-120.91L308.52-120.91Q312.38-120.91 315.05-119.50L315.05-119.50L315.05-119.50Q317.71-118.08 319.43-115.76L319.43-115.76L319.43-115.76Q321.15-113.44 322.14-110.43L322.14-110.43L322.14-110.43Q323.13-107.42 323.55-104.29L323.55-104.29L323.55-104.29Q323.98-101.15 324.07-98.10L324.07-98.10L324.07-98.10Q324.16-95.05 324.16-92.55L324.16-92.55L324.16-92.55Q324.16-86.11 322.95-79.02L322.95-79.02L322.95-79.02Q321.75-71.93 319.90-65.05L319.90-65.05L319.90-65.05Q318.05-58.18 315.86-51.86L315.86-51.86L315.86-51.86Q313.67-45.55 311.65-40.65L311.65-40.65L311.65-40.65Q309.63-35.75 308.04-32.66L308.04-32.66L308.04-32.66Q306.45-29.56 305.85-29.05L305.85-29.05L305.85-18.82L305.85-18.82Q305.85-13.49 308.09-10.10L308.09-10.10L308.09-10.10Q310.32-6.70 315.22-6.70L315.22-6.70L315.22-6.70Q318.23-6.70 320.85-8.55L320.85-8.55L320.85-8.55Q323.47-10.40 325.49-13.19L325.49-13.19L325.49-13.19Q327.51-15.98 328.88-19.29L328.88-19.29L328.88-19.29Q330.26-22.60 330.86-25.52ZM371.77-51.22L371.77-51.22L371.77-51.22Q371.77-46.32 370.09-41.16L370.09-41.16L370.09-41.16Q368.41-36.01 365.11-31.41L365.11-31.41L365.11-31.41Q361.80-26.81 356.94-23.16L356.94-23.16L356.94-23.16Q352.09-19.51 345.73-17.62L345.73-17.62L345.73-17.62Q346.59-15.38 348.00-13.36L348.00-13.36L348.00-13.36Q349.42-11.34 351.40-9.88L351.40-9.88L351.40-9.88Q353.38-8.42 356.00-7.56L356.00-7.56L356.00-7.56Q358.62-6.70 362.05-6.70L362.05-6.70L362.05-6.70Q367.21-6.70 370.91-8.64L370.91-8.64L370.91-8.64Q374.60-10.57 377.14-13.75L377.14-13.75L377.14-13.75Q379.67-16.93 381.22-20.88L381.22-20.88L381.22-20.88Q382.77-24.84 383.54-28.88L383.54-28.88L383.54-28.88Q384.14-31.80 385.99-32.79L385.99-32.79L385.99-32.79Q387.84-33.77 389.77-33.26L389.77-33.26L389.77-33.26Q391.70-32.74 393.12-31.07L393.12-31.07L393.12-31.07Q394.54-29.39 394.28-27.07L394.28-27.07L394.28-27.07Q393.94-24.41 393.12-20.97L393.12-20.97L393.12-20.97Q392.30-17.53 390.67-14.01L390.67-14.01L390.67-14.01Q389.04-10.48 386.50-7.09L386.50-7.09L386.50-7.09Q383.97-3.70 380.27-1.03L380.27-1.03L380.27-1.03Q376.58 1.63 371.59 3.27L371.59 3.27L371.59 3.27Q366.61 4.90 360.16 4.90L360.16 4.90L360.16 4.90Q354.15 4.90 348.52 2.54L348.52 2.54L348.52 2.54Q342.89 0.17 338.55-4.25L338.55-4.25L338.55-4.25Q334.21-8.68 331.59-15.17L331.59-15.17L331.59-15.17Q328.97-21.66 328.97-29.91L328.97-29.91L328.97-29.91Q328.97-38.24 331.29-45.42L331.29-45.42L331.29-45.42Q333.61-52.59 337.39-57.84L337.39-57.84L337.39-57.84Q341.17-63.08 345.98-66.04L345.98-66.04L345.98-66.04Q350.80-69.01 355.87-69.01L355.87-69.01L355.87-69.01Q359.56-69.01 362.53-67.72L362.53-67.72L362.53-67.72Q365.49-66.43 367.55-64.07L367.55-64.07L367.55-64.07Q369.62-61.70 370.69-58.44L370.69-58.44L370.69-58.44Q371.77-55.17 371.77-51.22ZM343.41-30.42L343.41-30.42L343.41-30.42Q343.41-29.65 343.49-28.88L343.49-28.88L343.49-28.88Q343.58-28.10 343.58-27.24L343.58-27.24L343.58-27.24Q346.84-28.79 349.51-31.20L349.51-31.20L349.51-31.20Q352.17-33.60 354.06-36.70L354.06-36.70L354.06-36.70Q355.95-39.79 356.98-43.44L356.98-43.44L356.98-43.44Q358.02-47.09 358.02-51.05L358.02-51.05L358.02-51.05Q358.02-53.97 357.03-55.60L357.03-55.60L357.03-55.60Q356.04-57.23 354.32-57.23L354.32-57.23L354.32-57.23Q352.17-57.23 350.50-55.77L350.50-55.77L350.50-55.77Q348.82-54.31 347.57-51.95L347.57-51.95L347.57-51.95Q346.33-49.59 345.51-46.62L345.51-46.62L345.51-46.62Q344.70-43.66 344.18-40.65L344.18-40.65L344.18-40.65Q343.66-37.64 343.49-34.93L343.49-34.93L343.49-34.93Q343.32-32.23 343.41-30.42Z" fill="#689c5c"></path></g></g><style>text {
  font-size: 64px;
  font-family: Arial Black;
  dominant-baseline: central;
  text-anchor: middle;
}</style></svg>